<svg xmlns="http://www.w3.org/2000/svg" xmlns:xlink="http://www.w3.org/1999/xlink" width="768" zoomAndPan="magnify" viewBox="0 0 576 576" height="768" preserveAspectRatio="xMidYMid meet" version="1.0"><defs><g/><clipPath id="aef02a1789"><path d="M 211 435 L 361 435 L 361 500.878906 L 211 500.878906 Z M 211 435 " clip-rule="nonzero"/></clipPath><clipPath id="98f1860dff"><path d="M 55.417969 125 L 515.917969 125 L 515.917969 425 L 55.417969 425 Z M 55.417969 125 " clip-rule="nonzero"/></clipPath><clipPath id="61d211bef6"><path d="M 261 74.878906 L 483 74.878906 L 483 165 L 261 165 Z M 261 74.878906 " clip-rule="nonzero"/></clipPath></defs><g fill="#192140" fill-opacity="1"><g transform="translate(55.476559, 560.279301)"><g><path d="M 26.640625 -23.828125 C 26.640625 -22.253906 26.296875 -20.910156 25.609375 -19.796875 C 24.929688 -18.679688 23.835938 -17.726562 22.328125 -16.9375 C 24.171875 -16.488281 25.65625 -15.644531 26.78125 -14.40625 C 27.914062 -13.164062 28.484375 -11.566406 28.484375 -9.609375 C 28.484375 -7.492188 27.960938 -5.71875 26.921875 -4.28125 C 25.878906 -2.84375 24.445312 -1.769531 22.625 -1.0625 C 20.800781 -0.351562 18.710938 0 16.359375 0 L 3.9375 0 L 3.9375 -30.984375 L 17.390625 -30.984375 C 19.085938 -30.984375 20.628906 -30.734375 22.015625 -30.234375 C 23.398438 -29.734375 24.515625 -28.960938 25.359375 -27.921875 C 26.210938 -26.878906 26.640625 -25.515625 26.640625 -23.828125 Z M 16.71875 -18.03125 C 17.53125 -18.269531 18.289062 -18.773438 19 -19.546875 C 19.707031 -20.316406 20.0625 -21.304688 20.0625 -22.515625 C 20.0625 -23.753906 19.671875 -24.742188 18.890625 -25.484375 C 18.109375 -26.222656 16.882812 -26.59375 15.21875 -26.59375 L 10.78125 -26.59375 L 10.78125 -18.03125 Z M 10.78125 -4.390625 L 16.53125 -4.390625 C 18.007812 -4.390625 19.203125 -4.8125 20.109375 -5.65625 C 21.015625 -6.507812 21.46875 -7.6875 21.46875 -9.1875 C 21.46875 -10.789062 20.9375 -11.945312 19.875 -12.65625 C 18.820312 -13.363281 17.316406 -13.71875 15.359375 -13.71875 L 10.78125 -13.71875 Z M 10.78125 -4.390625 "/></g></g></g><g fill="#192140" fill-opacity="1"><g transform="translate(85.724426, 560.279301)"><g><path d="M 20.15625 -6.203125 C 20.15625 -5.421875 20.296875 -4.847656 20.578125 -4.484375 C 20.867188 -4.117188 21.378906 -3.9375 22.109375 -3.9375 C 22.410156 -3.9375 22.6875 -3.957031 22.9375 -4 C 23.195312 -4.050781 23.476562 -4.109375 23.78125 -4.171875 L 23.78125 -0.59375 C 23.050781 -0.289062 22.265625 -0.0390625 21.421875 0.15625 C 20.578125 0.351562 19.71875 0.453125 18.84375 0.453125 C 17.8125 0.453125 16.875 0.195312 16.03125 -0.3125 C 15.1875 -0.832031 14.628906 -1.554688 14.359375 -2.484375 C 13.484375 -1.609375 12.515625 -0.90625 11.453125 -0.375 C 10.398438 0.144531 9.222656 0.40625 7.921875 0.40625 C 5.722656 0.40625 4.085938 -0.1875 3.015625 -1.375 C 1.941406 -2.570312 1.40625 -4.046875 1.40625 -5.796875 C 1.40625 -6.859375 1.570312 -7.800781 1.90625 -8.625 C 2.238281 -9.457031 2.691406 -10.070312 3.265625 -10.46875 C 3.742188 -10.800781 4.523438 -11.171875 5.609375 -11.578125 C 6.703125 -11.984375 7.988281 -12.40625 9.46875 -12.84375 C 10.945312 -13.28125 12.515625 -13.679688 14.171875 -14.046875 C 14.171875 -15.191406 13.867188 -16.085938 13.265625 -16.734375 C 12.660156 -17.390625 11.695312 -17.71875 10.375 -17.71875 C 9.257812 -17.71875 8.085938 -17.503906 6.859375 -17.078125 C 5.640625 -16.648438 4.289062 -16.015625 2.8125 -15.171875 L 2.8125 -19.515625 C 4.257812 -20.335938 5.742188 -20.96875 7.265625 -21.40625 C 8.796875 -21.84375 10.316406 -22.0625 11.828125 -22.0625 C 13.359375 -22.0625 14.75 -21.8125 16 -21.3125 C 17.257812 -20.8125 18.265625 -20.03125 19.015625 -18.96875 C 19.773438 -17.914062 20.15625 -16.546875 20.15625 -14.859375 Z M 7.46875 -6.5625 C 7.46875 -5.625 7.722656 -4.921875 8.234375 -4.453125 C 8.753906 -3.992188 9.390625 -3.765625 10.140625 -3.765625 C 10.867188 -3.765625 11.585938 -3.941406 12.296875 -4.296875 C 13.003906 -4.660156 13.628906 -5.175781 14.171875 -5.84375 L 14.171875 -10.515625 C 13.242188 -10.359375 12.332031 -10.148438 11.4375 -9.890625 C 10.539062 -9.640625 9.785156 -9.398438 9.171875 -9.171875 C 8.554688 -8.941406 8.1875 -8.769531 8.0625 -8.65625 C 7.664062 -8.320312 7.46875 -7.625 7.46875 -6.5625 Z M 7.46875 -6.5625 "/></g></g></g><g fill="#192140" fill-opacity="1"><g transform="translate(109.225382, 560.279301)"><g><path d="M 20.0625 -1.5 C 18.769531 -0.832031 17.457031 -0.335938 16.125 -0.015625 C 14.789062 0.296875 13.476562 0.453125 12.1875 0.453125 C 10.101562 0.453125 8.242188 0.015625 6.609375 -0.859375 C 4.984375 -1.734375 3.703125 -2.96875 2.765625 -4.5625 C 1.828125 -6.164062 1.359375 -8.039062 1.359375 -10.1875 C 1.359375 -12.488281 1.863281 -14.535156 2.875 -16.328125 C 3.882812 -18.128906 5.300781 -19.539062 7.125 -20.5625 C 8.957031 -21.59375 11.082031 -22.109375 13.5 -22.109375 C 14.644531 -22.109375 15.789062 -22.007812 16.9375 -21.8125 C 18.082031 -21.613281 19.050781 -21.378906 19.84375 -21.109375 L 19.84375 -15.90625 C 17.488281 -16.925781 15.328125 -17.4375 13.359375 -17.4375 C 11.640625 -17.4375 10.300781 -16.835938 9.34375 -15.640625 C 8.394531 -14.453125 7.921875 -12.921875 7.921875 -11.046875 C 7.921875 -8.929688 8.457031 -7.253906 9.53125 -6.015625 C 10.601562 -4.785156 12.0625 -4.171875 13.90625 -4.171875 C 14.78125 -4.171875 15.742188 -4.304688 16.796875 -4.578125 C 17.859375 -4.847656 18.945312 -5.207031 20.0625 -5.65625 Z M 20.0625 -1.5 "/></g></g></g><g fill="#192140" fill-opacity="1"><g transform="translate(130.507558, 560.279301)"><g><path d="M 24.90625 0 L 17.21875 0 L 11.59375 -8.703125 L 9.375 -8.703125 L 9.375 0 L 2.984375 0 L 2.984375 -33.46875 L 9.375 -33.46875 L 9.375 -13.1875 L 11.1875 -13.1875 L 17.484375 -21.421875 L 24.5 -21.421875 L 16.765625 -11.875 Z M 24.90625 0 "/></g></g></g><g fill="#192140" fill-opacity="1"><g transform="translate(155.638646, 560.279301)"><g><path d="M 12.8125 -22.15625 C 15.71875 -22.15625 17.992188 -21.289062 19.640625 -19.5625 C 21.285156 -17.84375 22.109375 -15.335938 22.109375 -12.046875 L 22.109375 -10.328125 L 7.84375 -10.328125 C 7.988281 -8.273438 8.601562 -6.710938 9.6875 -5.640625 C 10.78125 -4.566406 12.289062 -4.03125 14.21875 -4.03125 C 15.550781 -4.03125 16.890625 -4.1875 18.234375 -4.5 C 19.578125 -4.820312 20.820312 -5.222656 21.96875 -5.703125 L 21.96875 -1.625 C 20.851562 -0.988281 19.488281 -0.46875 17.875 -0.0625 C 16.257812 0.34375 14.585938 0.546875 12.859375 0.546875 C 10.660156 0.546875 8.691406 0.109375 6.953125 -0.765625 C 5.210938 -1.640625 3.84375 -2.90625 2.84375 -4.5625 C 1.851562 -6.226562 1.359375 -8.222656 1.359375 -10.546875 C 1.359375 -12.722656 1.828125 -14.6875 2.765625 -16.4375 C 3.703125 -18.1875 5.03125 -19.578125 6.75 -20.609375 C 8.46875 -21.640625 10.488281 -22.15625 12.8125 -22.15625 Z M 16.21875 -13.90625 C 16.0625 -16.894531 14.765625 -18.390625 12.328125 -18.390625 C 11.085938 -18.390625 10.066406 -17.972656 9.265625 -17.140625 C 8.460938 -16.316406 7.972656 -15.238281 7.796875 -13.90625 Z M 16.21875 -13.90625 "/></g></g></g><g fill="#192140" fill-opacity="1"><g transform="translate(179.184887, 560.279301)"><g><path d="M 9.1875 -19.0625 C 10.15625 -20 11.21875 -20.707031 12.375 -21.1875 C 13.539062 -21.675781 14.820312 -21.921875 16.21875 -21.921875 C 18.632812 -21.921875 20.503906 -21.253906 21.828125 -19.921875 C 23.160156 -18.597656 23.828125 -16.679688 23.828125 -14.171875 L 23.828125 0 L 17.296875 0 L 17.296875 -13.265625 C 17.296875 -15.898438 16.078125 -17.21875 13.640625 -17.21875 C 12.878906 -17.21875 12.113281 -17.035156 11.34375 -16.671875 C 10.570312 -16.304688 9.929688 -15.835938 9.421875 -15.265625 L 9.421875 0 L 2.984375 0 L 2.984375 -21.421875 L 9.1875 -21.421875 Z M 9.1875 -19.0625 "/></g></g></g><g fill="#192140" fill-opacity="1"><g transform="translate(205.855536, 560.279301)"><g><path d="M 17.21875 -21.203125 L 17.21875 -33.46875 L 23.546875 -33.46875 L 23.546875 0 L 17.484375 0 L 17.484375 -2.171875 C 16.515625 -1.234375 15.5 -0.5625 14.4375 -0.15625 C 13.382812 0.25 12.238281 0.453125 11 0.453125 C 9.070312 0.453125 7.390625 -0.00390625 5.953125 -0.921875 C 4.523438 -1.847656 3.410156 -3.132812 2.609375 -4.78125 C 1.804688 -6.425781 1.40625 -8.335938 1.40625 -10.515625 C 1.40625 -12.710938 1.910156 -14.671875 2.921875 -16.390625 C 3.929688 -18.117188 5.300781 -19.472656 7.03125 -20.453125 C 8.769531 -21.429688 10.726562 -21.921875 12.90625 -21.921875 C 14.382812 -21.921875 15.820312 -21.679688 17.21875 -21.203125 Z M 8.015625 -11.234375 C 8.015625 -8.816406 8.46875 -6.992188 9.375 -5.765625 C 10.28125 -4.546875 11.441406 -3.9375 12.859375 -3.9375 C 13.617188 -3.9375 14.375 -4.132812 15.125 -4.53125 C 15.882812 -4.925781 16.550781 -5.4375 17.125 -6.0625 L 17.125 -16.578125 C 15.851562 -17.335938 14.429688 -17.71875 12.859375 -17.71875 C 11.378906 -17.71875 10.203125 -17.117188 9.328125 -15.921875 C 8.453125 -14.722656 8.015625 -13.160156 8.015625 -11.234375 Z M 8.015625 -11.234375 "/></g></g></g><g fill="#192140" fill-opacity="1"><g transform="translate(232.390332, 560.279301)"><g/></g></g><g fill="#192140" fill-opacity="1"><g transform="translate(243.43895, 560.279301)"><g><path d="M 3.9375 -30.984375 L 14.125 -30.984375 C 17.507812 -30.984375 20.46875 -30.410156 23 -29.265625 C 25.539062 -28.117188 27.515625 -26.429688 28.921875 -24.203125 C 30.328125 -21.984375 31.03125 -19.273438 31.03125 -16.078125 C 31.03125 -12.691406 30.359375 -9.800781 29.015625 -7.40625 C 27.671875 -5.007812 25.78125 -3.175781 23.34375 -1.90625 C 20.914062 -0.632812 18.054688 0 14.765625 0 L 3.9375 0 Z M 10.828125 -4.9375 L 14.953125 -4.9375 C 17.578125 -4.9375 19.726562 -5.765625 21.40625 -7.421875 C 23.082031 -9.085938 23.921875 -11.703125 23.921875 -15.265625 C 23.921875 -17.796875 23.488281 -19.851562 22.625 -21.4375 C 21.757812 -23.03125 20.578125 -24.195312 19.078125 -24.9375 C 17.585938 -25.675781 15.894531 -26.046875 14 -26.046875 L 10.828125 -26.046875 Z M 10.828125 -4.9375 "/></g></g></g><g fill="#192140" fill-opacity="1"><g transform="translate(276.17728, 560.279301)"><g><path d="M 12.8125 -22.15625 C 15.71875 -22.15625 17.992188 -21.289062 19.640625 -19.5625 C 21.285156 -17.84375 22.109375 -15.335938 22.109375 -12.046875 L 22.109375 -10.328125 L 7.84375 -10.328125 C 7.988281 -8.273438 8.601562 -6.710938 9.6875 -5.640625 C 10.78125 -4.566406 12.289062 -4.03125 14.21875 -4.03125 C 15.550781 -4.03125 16.890625 -4.1875 18.234375 -4.5 C 19.578125 -4.820312 20.820312 -5.222656 21.96875 -5.703125 L 21.96875 -1.625 C 20.851562 -0.988281 19.488281 -0.46875 17.875 -0.0625 C 16.257812 0.34375 14.585938 0.546875 12.859375 0.546875 C 10.660156 0.546875 8.691406 0.109375 6.953125 -0.765625 C 5.210938 -1.640625 3.84375 -2.90625 2.84375 -4.5625 C 1.851562 -6.226562 1.359375 -8.222656 1.359375 -10.546875 C 1.359375 -12.722656 1.828125 -14.6875 2.765625 -16.4375 C 3.703125 -18.1875 5.03125 -19.578125 6.75 -20.609375 C 8.46875 -21.640625 10.488281 -22.15625 12.8125 -22.15625 Z M 16.21875 -13.90625 C 16.0625 -16.894531 14.765625 -18.390625 12.328125 -18.390625 C 11.085938 -18.390625 10.066406 -17.972656 9.265625 -17.140625 C 8.460938 -16.316406 7.972656 -15.238281 7.796875 -13.90625 Z M 16.21875 -13.90625 "/></g></g></g><g fill="#192140" fill-opacity="1"><g transform="translate(299.72352, 560.279301)"><g><path d="M 11.953125 -6.0625 L 17.484375 -21.421875 L 23.546875 -21.421875 L 15 0.140625 L 8.203125 0.140625 L 0.5 -21.421875 L 7.15625 -21.421875 Z M 11.953125 -6.0625 "/></g></g></g><g fill="#192140" fill-opacity="1"><g transform="translate(323.767854, 560.279301)"><g><path d="M 12.8125 -22.15625 C 15.71875 -22.15625 17.992188 -21.289062 19.640625 -19.5625 C 21.285156 -17.84375 22.109375 -15.335938 22.109375 -12.046875 L 22.109375 -10.328125 L 7.84375 -10.328125 C 7.988281 -8.273438 8.601562 -6.710938 9.6875 -5.640625 C 10.78125 -4.566406 12.289062 -4.03125 14.21875 -4.03125 C 15.550781 -4.03125 16.890625 -4.1875 18.234375 -4.5 C 19.578125 -4.820312 20.820312 -5.222656 21.96875 -5.703125 L 21.96875 -1.625 C 20.851562 -0.988281 19.488281 -0.46875 17.875 -0.0625 C 16.257812 0.34375 14.585938 0.546875 12.859375 0.546875 C 10.660156 0.546875 8.691406 0.109375 6.953125 -0.765625 C 5.210938 -1.640625 3.84375 -2.90625 2.84375 -4.5625 C 1.851562 -6.226562 1.359375 -8.222656 1.359375 -10.546875 C 1.359375 -12.722656 1.828125 -14.6875 2.765625 -16.4375 C 3.703125 -18.1875 5.03125 -19.578125 6.75 -20.609375 C 8.46875 -21.640625 10.488281 -22.15625 12.8125 -22.15625 Z M 16.21875 -13.90625 C 16.0625 -16.894531 14.765625 -18.390625 12.328125 -18.390625 C 11.085938 -18.390625 10.066406 -17.972656 9.265625 -17.140625 C 8.460938 -16.316406 7.972656 -15.238281 7.796875 -13.90625 Z M 16.21875 -13.90625 "/></g></g></g><g fill="#192140" fill-opacity="1"><g transform="translate(347.314095, 560.279301)"><g><path d="M 9.515625 0 L 3.125 0 L 3.125 -33.46875 L 9.515625 -33.46875 Z M 9.515625 0 "/></g></g></g><g fill="#192140" fill-opacity="1"><g transform="translate(359.947571, 560.279301)"><g><path d="M 24.6875 -11.140625 C 24.6875 -8.847656 24.179688 -6.828125 23.171875 -5.078125 C 22.160156 -3.328125 20.765625 -1.953125 18.984375 -0.953125 C 17.203125 0.046875 15.175781 0.546875 12.90625 0.546875 C 10.644531 0.546875 8.644531 0.09375 6.90625 -0.8125 C 5.164062 -1.71875 3.8125 -3.007812 2.84375 -4.6875 C 1.882812 -6.363281 1.40625 -8.363281 1.40625 -10.6875 C 1.40625 -12.925781 1.925781 -14.90625 2.96875 -16.625 C 4.007812 -18.34375 5.425781 -19.703125 7.21875 -20.703125 C 9.019531 -21.703125 11.035156 -22.203125 13.265625 -22.203125 C 15.535156 -22.203125 17.519531 -21.769531 19.21875 -20.90625 C 20.925781 -20.039062 22.265625 -18.785156 23.234375 -17.140625 C 24.203125 -15.492188 24.6875 -13.492188 24.6875 -11.140625 Z M 8.15625 -11 C 8.15625 -8.738281 8.539062 -6.90625 9.3125 -5.5 C 10.082031 -4.09375 11.328125 -3.390625 13.046875 -3.390625 C 14.796875 -3.390625 16.054688 -4.066406 16.828125 -5.421875 C 17.597656 -6.785156 17.984375 -8.484375 17.984375 -10.515625 C 17.984375 -12.742188 17.640625 -14.585938 16.953125 -16.046875 C 16.273438 -17.515625 15.046875 -18.25 13.265625 -18.25 C 11.515625 -18.25 10.222656 -17.566406 9.390625 -16.203125 C 8.566406 -14.847656 8.15625 -13.113281 8.15625 -11 Z M 8.15625 -11 "/></g></g></g><g fill="#192140" fill-opacity="1"><g transform="translate(386.02957, 560.279301)"><g><path d="M 9.1875 -19.390625 C 10.25 -20.265625 11.300781 -20.90625 12.34375 -21.3125 C 13.382812 -21.71875 14.507812 -21.921875 15.71875 -21.921875 C 17.53125 -21.921875 19.144531 -21.519531 20.5625 -20.71875 C 21.976562 -19.914062 23.09375 -18.789062 23.90625 -17.34375 C 24.726562 -15.894531 25.140625 -14.175781 25.140625 -12.1875 C 25.140625 -9.738281 24.617188 -7.5625 23.578125 -5.65625 C 22.535156 -3.757812 21.113281 -2.265625 19.3125 -1.171875 C 17.519531 -0.0859375 15.460938 0.453125 13.140625 0.453125 C 12.617188 0.453125 12.019531 0.398438 11.34375 0.296875 C 10.664062 0.191406 10.007812 0.0625 9.375 -0.09375 L 9.375 10.28125 L 2.984375 10.28125 L 2.984375 -21.421875 L 9.1875 -21.421875 Z M 9.421875 -4.53125 C 10.628906 -3.894531 11.957031 -3.578125 13.40625 -3.578125 C 14.34375 -3.578125 15.195312 -3.898438 15.96875 -4.546875 C 16.738281 -5.203125 17.359375 -6.101562 17.828125 -7.25 C 18.296875 -8.394531 18.53125 -9.691406 18.53125 -11.140625 C 18.53125 -13.285156 18.046875 -14.867188 17.078125 -15.890625 C 16.109375 -16.921875 14.929688 -17.4375 13.546875 -17.4375 C 12.878906 -17.4375 12.175781 -17.269531 11.4375 -16.9375 C 10.695312 -16.601562 10.023438 -16.164062 9.421875 -15.625 Z M 9.421875 -4.53125 "/></g></g></g><g fill="#192140" fill-opacity="1"><g transform="translate(412.564367, 560.279301)"><g><path d="M 22.234375 -18.984375 C 23.410156 -19.972656 24.554688 -20.707031 25.671875 -21.1875 C 26.796875 -21.675781 28.1875 -21.921875 29.84375 -21.921875 C 32.226562 -21.921875 34.046875 -21.238281 35.296875 -19.875 C 36.554688 -18.519531 37.1875 -16.632812 37.1875 -14.21875 L 37.1875 0 L 30.671875 0 L 30.671875 -13.359375 C 30.671875 -14.691406 30.390625 -15.664062 29.828125 -16.28125 C 29.265625 -16.90625 28.367188 -17.21875 27.140625 -17.21875 C 25.742188 -17.21875 24.425781 -16.640625 23.1875 -15.484375 C 23.21875 -15.273438 23.234375 -15.082031 23.234375 -14.90625 L 23.234375 0 L 16.765625 0 L 16.765625 -13.3125 C 16.765625 -15.914062 15.722656 -17.21875 13.640625 -17.21875 C 12.847656 -17.21875 12.082031 -17.039062 11.34375 -16.6875 C 10.601562 -16.34375 9.960938 -15.867188 9.421875 -15.265625 L 9.421875 0 L 2.984375 0 L 2.984375 -21.421875 L 9.1875 -21.421875 L 9.1875 -19.109375 C 10.28125 -20.109375 11.390625 -20.828125 12.515625 -21.265625 C 13.648438 -21.703125 14.957031 -21.921875 16.4375 -21.921875 C 19.21875 -21.921875 21.148438 -20.941406 22.234375 -18.984375 Z M 22.234375 -18.984375 "/></g></g></g><g fill="#192140" fill-opacity="1"><g transform="translate(452.54771, 560.279301)"><g><path d="M 12.8125 -22.15625 C 15.71875 -22.15625 17.992188 -21.289062 19.640625 -19.5625 C 21.285156 -17.84375 22.109375 -15.335938 22.109375 -12.046875 L 22.109375 -10.328125 L 7.84375 -10.328125 C 7.988281 -8.273438 8.601562 -6.710938 9.6875 -5.640625 C 10.78125 -4.566406 12.289062 -4.03125 14.21875 -4.03125 C 15.550781 -4.03125 16.890625 -4.1875 18.234375 -4.5 C 19.578125 -4.820312 20.820312 -5.222656 21.96875 -5.703125 L 21.96875 -1.625 C 20.851562 -0.988281 19.488281 -0.46875 17.875 -0.0625 C 16.257812 0.34375 14.585938 0.546875 12.859375 0.546875 C 10.660156 0.546875 8.691406 0.109375 6.953125 -0.765625 C 5.210938 -1.640625 3.84375 -2.90625 2.84375 -4.5625 C 1.851562 -6.226562 1.359375 -8.222656 1.359375 -10.546875 C 1.359375 -12.722656 1.828125 -14.6875 2.765625 -16.4375 C 3.703125 -18.1875 5.03125 -19.578125 6.75 -20.609375 C 8.46875 -21.640625 10.488281 -22.15625 12.8125 -22.15625 Z M 16.21875 -13.90625 C 16.0625 -16.894531 14.765625 -18.390625 12.328125 -18.390625 C 11.085938 -18.390625 10.066406 -17.972656 9.265625 -17.140625 C 8.460938 -16.316406 7.972656 -15.238281 7.796875 -13.90625 Z M 16.21875 -13.90625 "/></g></g></g><g fill="#192140" fill-opacity="1"><g transform="translate(476.093974, 560.279301)"><g><path d="M 9.1875 -19.0625 C 10.15625 -20 11.21875 -20.707031 12.375 -21.1875 C 13.539062 -21.675781 14.820312 -21.921875 16.21875 -21.921875 C 18.632812 -21.921875 20.503906 -21.253906 21.828125 -19.921875 C 23.160156 -18.597656 23.828125 -16.679688 23.828125 -14.171875 L 23.828125 0 L 17.296875 0 L 17.296875 -13.265625 C 17.296875 -15.898438 16.078125 -17.21875 13.640625 -17.21875 C 12.878906 -17.21875 12.113281 -17.035156 11.34375 -16.671875 C 10.570312 -16.304688 9.929688 -15.835938 9.421875 -15.265625 L 9.421875 0 L 2.984375 0 L 2.984375 -21.421875 L 9.1875 -21.421875 Z M 9.1875 -19.0625 "/></g></g></g><g fill="#192140" fill-opacity="1"><g transform="translate(502.764612, 560.279301)"><g><path d="M 10.015625 -7.65625 C 10.015625 -6.351562 10.34375 -5.414062 11 -4.84375 C 11.664062 -4.269531 12.785156 -3.984375 14.359375 -3.984375 C 14.835938 -3.984375 15.347656 -4.015625 15.890625 -4.078125 C 16.441406 -4.140625 16.988281 -4.210938 17.53125 -4.296875 L 17.53125 -0.453125 C 16.75 -0.210938 15.875 -0.0078125 14.90625 0.15625 C 13.9375 0.320312 12.925781 0.40625 11.875 0.40625 C 10.332031 0.40625 8.929688 0.1875 7.671875 -0.25 C 6.421875 -0.6875 5.425781 -1.390625 4.6875 -2.359375 C 3.945312 -3.328125 3.578125 -4.578125 3.578125 -6.109375 L 3.578125 -17.21875 L 0.546875 -17.21875 L 0.546875 -21.421875 L 3.765625 -21.421875 L 5.15625 -26.6875 L 10.015625 -26.6875 L 10.015625 -21.421875 L 17.390625 -21.421875 L 17.390625 -17.21875 L 10.015625 -17.21875 Z M 10.015625 -7.65625 "/></g></g></g><g clip-path="url(#aef02a1789)"><path fill="#192140" d="M 360.101562 495.65625 C 360.101562 498.652344 357.636719 501.113281 354.640625 501.113281 L 216.988281 501.113281 C 213.992188 501.113281 211.527344 498.652344 211.527344 495.65625 C 211.527344 492.65625 213.992188 490.195312 216.988281 490.195312 L 251.453125 490.195312 C 258.734375 472.214844 258.734375 454.230469 251.347656 435.605469 L 320.28125 435.605469 C 312.894531 454.230469 312.894531 472.214844 320.175781 490.195312 L 354.640625 490.195312 C 357.636719 490.195312 360.101562 492.660156 360.101562 495.65625 Z M 360.101562 495.65625 " fill-opacity="1" fill-rule="nonzero"/></g><g clip-path="url(#98f1860dff)"><path fill="#f1eeea" d="M 493.042969 125.832031 L 493.042969 243.253906 C 493.042969 274.617188 439.84375 299.128906 371.875 299.128906 C 303.90625 299.128906 250.707031 274.617188 250.707031 243.253906 L 250.707031 125.296875 L 84.042969 125.296875 C 68.414062 125.296875 55.679688 138.035156 55.679688 153.769531 L 55.679688 396.429688 C 55.679688 412.058594 68.414062 424.792969 84.042969 424.792969 L 487.476562 424.792969 C 503.105469 424.792969 515.84375 412.058594 515.84375 396.429688 L 515.84375 153.769531 C 515.949219 139.960938 506.101562 128.398438 493.042969 125.832031 Z M 304.4375 331.242188 L 336.765625 331.242188 C 339.761719 331.242188 342.226562 333.703125 342.226562 336.699219 C 342.226562 339.699219 339.761719 342.160156 336.765625 342.160156 L 304.4375 342.160156 C 301.441406 342.160156 298.980469 339.699219 298.980469 336.699219 C 298.980469 333.703125 301.441406 331.242188 304.4375 331.242188 Z M 250.382812 336.699219 C 250.382812 339.699219 247.921875 342.160156 244.925781 342.160156 L 212.597656 342.160156 C 209.601562 342.160156 207.140625 339.699219 207.140625 336.699219 C 207.140625 333.703125 209.601562 331.242188 212.597656 331.242188 L 244.925781 331.242188 C 247.921875 331.242188 250.382812 333.703125 250.382812 336.699219 Z M 240.535156 252.78125 C 240.535156 254.386719 239.789062 255.992188 238.503906 256.957031 L 200.503906 288.105469 C 199.539062 288.960938 198.253906 289.28125 197.078125 289.28125 C 195.472656 289.28125 193.972656 288.640625 192.902344 287.246094 C 190.976562 284.894531 191.296875 281.46875 193.652344 279.542969 L 226.515625 252.675781 L 193.652344 225.808594 C 191.296875 223.878906 190.976562 220.453125 192.902344 218.101562 C 194.832031 215.746094 198.253906 215.425781 200.609375 217.351562 L 238.609375 248.5 C 239.789062 249.570312 240.535156 251.066406 240.535156 252.78125 Z M 159.292969 167.789062 L 221.589844 167.789062 C 224.585938 167.789062 227.050781 170.253906 227.050781 173.25 C 227.050781 176.246094 224.585938 178.710938 221.589844 178.710938 L 159.292969 178.710938 C 156.296875 178.710938 153.832031 176.246094 153.832031 173.25 C 153.832031 170.253906 156.296875 167.789062 159.292969 167.789062 Z M 147.734375 287.570312 L 167.214844 214.996094 C 167.964844 212.105469 170.960938 210.394531 173.851562 211.140625 C 176.742188 211.890625 178.453125 214.890625 177.703125 217.886719 L 158.222656 290.460938 C 157.582031 292.921875 155.332031 294.527344 152.976562 294.527344 C 152.550781 294.527344 152.015625 294.417969 151.585938 294.3125 C 148.695312 293.457031 146.875 290.460938 147.734375 287.570312 Z M 92.605469 167.789062 L 125.359375 167.789062 C 128.359375 167.789062 130.820312 170.253906 130.820312 173.25 C 130.820312 176.246094 128.359375 178.710938 125.359375 178.710938 L 92.605469 178.710938 C 89.609375 178.710938 87.148438 176.246094 87.148438 173.25 C 87.148438 170.253906 89.609375 167.789062 92.605469 167.789062 Z M 84.792969 252.78125 C 84.792969 251.175781 85.542969 249.570312 86.828125 248.605469 L 124.824219 217.351562 C 127.179688 215.425781 130.605469 215.746094 132.53125 218.101562 C 134.460938 220.453125 134.136719 223.878906 131.785156 225.808594 L 98.921875 252.675781 L 131.785156 279.542969 C 134.136719 281.46875 134.460938 284.894531 132.53125 287.246094 C 131.460938 288.53125 129.855469 289.28125 128.359375 289.28125 C 127.179688 289.28125 125.894531 288.855469 124.933594 288.105469 L 86.828125 256.957031 C 85.542969 255.886719 84.792969 254.386719 84.792969 252.78125 Z M 156.296875 382.191406 L 92.605469 382.191406 C 89.609375 382.191406 87.148438 379.730469 87.148438 376.734375 C 87.148438 373.738281 89.609375 371.273438 92.605469 371.273438 L 156.296875 371.273438 C 159.292969 371.273438 161.753906 373.738281 161.753906 376.734375 C 161.753906 379.835938 159.292969 382.191406 156.296875 382.191406 Z M 92.605469 342.160156 C 89.609375 342.160156 87.148438 339.699219 87.148438 336.699219 C 87.148438 333.703125 89.609375 331.242188 92.605469 331.242188 L 181.34375 331.242188 C 184.339844 331.242188 186.800781 333.703125 186.800781 336.699219 C 186.800781 339.699219 184.339844 342.160156 181.34375 342.160156 Z M 345.972656 382.191406 L 190.226562 382.191406 C 187.230469 382.191406 184.769531 379.730469 184.769531 376.734375 C 184.769531 373.738281 187.230469 371.273438 190.226562 371.273438 L 345.972656 371.273438 C 348.96875 371.273438 351.429688 373.738281 351.429688 376.734375 C 351.429688 379.730469 348.96875 382.191406 345.972656 382.191406 Z M 362.5625 336.699219 C 362.5625 333.703125 365.023438 331.242188 368.019531 331.242188 L 480.949219 331.242188 C 483.945312 331.242188 486.40625 333.703125 486.40625 336.699219 C 486.40625 339.699219 483.945312 342.160156 480.949219 342.160156 L 368.019531 342.160156 C 365.023438 342.160156 362.5625 339.699219 362.5625 336.699219 Z M 414.796875 382.191406 L 386.644531 382.191406 C 383.648438 382.191406 381.1875 379.730469 381.1875 376.734375 C 381.1875 373.738281 383.648438 371.273438 386.644531 371.273438 L 414.796875 371.273438 C 417.796875 371.273438 420.257812 373.738281 420.257812 376.734375 C 420.257812 379.835938 417.796875 382.191406 414.796875 382.191406 Z M 481.378906 382.191406 L 453.226562 382.191406 C 450.226562 382.191406 447.765625 379.730469 447.765625 376.734375 C 447.765625 373.738281 450.226562 371.273438 453.226562 371.273438 L 481.378906 371.273438 C 484.375 371.273438 486.835938 373.738281 486.835938 376.734375 C 486.835938 379.730469 484.375 382.191406 481.378906 382.191406 Z M 481.378906 382.191406 " fill-opacity="1" fill-rule="nonzero"/></g><path fill="#192140" d="M 482.125 205.148438 L 482.125 243.253906 C 482.125 264.984375 437.8125 288.210938 371.875 288.210938 C 305.9375 288.210938 261.625 264.984375 261.625 243.253906 L 261.625 205.148438 C 280.570312 224.414062 322.316406 237.472656 371.875 237.472656 C 421.433594 237.472656 463.179688 224.308594 482.125 205.148438 Z M 482.125 205.148438 " fill-opacity="1" fill-rule="nonzero"/><g clip-path="url(#61d211bef6)"><path fill="#f1eeea" d="M 482.125 119.835938 C 482.125 130.863281 470.992188 141.996094 451.511719 150.449219 C 430.320312 159.65625 402.058594 164.792969 371.980469 164.792969 C 341.902344 164.792969 313.644531 159.65625 292.449219 150.449219 C 272.96875 141.996094 261.835938 130.753906 261.835938 119.835938 C 261.835938 108.917969 272.96875 97.679688 292.449219 89.222656 C 313.644531 80.019531 341.902344 74.878906 371.980469 74.878906 C 402.058594 74.878906 430.320312 80.019531 451.511719 89.222656 C 470.886719 97.679688 482.125 108.917969 482.125 119.835938 Z M 482.125 119.835938 " fill-opacity="1" fill-rule="nonzero"/></g><path fill="#192140" d="M 482.125 143.386719 L 482.125 181.492188 C 482.125 203.222656 437.8125 226.449219 371.875 226.449219 C 305.9375 226.449219 261.625 203.222656 261.625 181.492188 L 261.625 143.386719 C 280.570312 162.652344 322.316406 175.710938 371.875 175.710938 C 421.433594 175.710938 463.179688 162.652344 482.125 143.386719 Z M 482.125 143.386719 " fill-opacity="1" fill-rule="nonzero"/></svg>