<svg xmlns="http://www.w3.org/2000/svg" xmlns:xlink="http://www.w3.org/1999/xlink" width="768" zoomAndPan="magnify" viewBox="0 0 576 576" height="768" preserveAspectRatio="xMidYMid meet" version="1.0"><defs><g/><clipPath id="35bf65ef37"><path d="M 57.601562 106.847656 L 518.101562 106.847656 L 518.101562 469.097656 L 57.601562 469.097656 Z M 57.601562 106.847656 " clip-rule="nonzero"/></clipPath><clipPath id="dc46606aba"><path d="M 57.601562 106.847656 L 518.101562 106.847656 L 518.101562 404 L 57.601562 404 Z M 57.601562 106.847656 " clip-rule="nonzero"/></clipPath><clipPath id="50361287d0"><path d="M 57.601562 362 L 518.101562 362 L 518.101562 404 L 57.601562 404 Z M 57.601562 362 " clip-rule="nonzero"/></clipPath></defs><g clip-path="url(#35bf65ef37)"><path fill="#f1eeea" d="M 238.625 403.195312 C 238.625 403.195312 237.515625 438.972656 219.890625 462.300781 C 218.878906 463.5 218.648438 465.179688 219.304688 466.609375 C 219.972656 468.035156 221.402344 468.949219 222.976562 468.949219 C 249.429688 469.023438 326.5625 469.023438 353.019531 469.023438 C 354.621094 469.023438 356.070312 468.09375 356.746094 466.636719 C 357.417969 465.1875 357.191406 463.476562 356.160156 462.257812 C 338.476562 438.972656 337.367188 403.195312 337.367188 403.195312 L 501.9375 403.195312 C 511.027344 403.195312 518.394531 395.832031 518.394531 386.738281 C 518.394531 334.882812 518.394531 175.28125 518.394531 123.425781 C 518.394531 114.335938 511.027344 106.96875 501.9375 106.96875 C 430.265625 106.96875 145.726562 106.96875 74.058594 106.96875 C 64.964844 106.96875 57.601562 114.335938 57.601562 123.425781 C 57.601562 175.28125 57.601562 334.882812 57.601562 386.738281 C 57.601562 395.832031 64.964844 403.195312 74.058594 403.195312 Z M 238.625 403.195312 " fill-opacity="1" fill-rule="evenodd"/></g><g clip-path="url(#dc46606aba)"><path fill="#f1eeea" d="M 518.394531 123.425781 C 518.394531 114.335938 511.027344 106.96875 501.9375 106.96875 C 430.265625 106.96875 145.726562 106.96875 74.058594 106.96875 C 64.964844 106.96875 57.601562 114.335938 57.601562 123.425781 C 57.601562 175.28125 57.601562 334.882812 57.601562 386.738281 C 57.601562 395.832031 64.964844 403.195312 74.058594 403.195312 C 145.726562 403.195312 430.265625 403.195312 501.9375 403.195312 C 511.027344 403.195312 518.394531 395.832031 518.394531 386.738281 C 518.394531 334.882812 518.394531 175.28125 518.394531 123.425781 Z M 518.394531 123.425781 " fill-opacity="1" fill-rule="evenodd"/></g><g clip-path="url(#50361287d0)"><path fill="#192140" d="M 518.394531 362.050781 L 57.601562 362.050781 L 57.601562 386.738281 C 57.601562 395.832031 64.964844 403.195312 74.058594 403.195312 C 145.726562 403.195312 430.265625 403.195312 501.9375 403.195312 C 511.027344 403.195312 518.394531 395.832031 518.394531 386.738281 Z M 518.394531 362.050781 " fill-opacity="1" fill-rule="evenodd"/></g><path fill="#192140" d="M 271.539062 218.054688 C 271.539062 214.78125 270.238281 211.644531 267.925781 209.324219 C 265.605469 207.011719 262.472656 205.710938 259.195312 205.710938 C 227.386719 205.710938 142.894531 205.710938 111.085938 205.710938 C 107.808594 205.710938 104.675781 207.011719 102.355469 209.324219 C 100.042969 211.644531 98.742188 214.78125 98.742188 218.054688 C 98.742188 241.703125 98.742188 293.148438 98.742188 316.796875 C 98.742188 320.070312 100.042969 323.207031 102.355469 325.527344 C 104.675781 327.839844 107.808594 329.136719 111.085938 329.136719 C 142.894531 329.136719 227.386719 329.136719 259.195312 329.136719 C 262.472656 329.136719 265.605469 327.839844 267.925781 325.527344 C 270.238281 323.207031 271.539062 320.070312 271.539062 316.796875 C 271.539062 293.148438 271.539062 241.703125 271.539062 218.054688 Z M 271.539062 218.054688 " fill-opacity="1" fill-rule="evenodd"/><path fill="#192140" d="M 214.8125 263.746094 C 216.203125 264.4375 217.082031 265.871094 217.082031 267.425781 C 217.082031 268.980469 216.203125 270.414062 214.8125 271.101562 C 203.269531 276.878906 181.132812 287.945312 170.527344 293.246094 C 169.25 293.886719 167.738281 293.8125 166.519531 293.066406 C 165.308594 292.316406 164.570312 290.992188 164.570312 289.566406 C 164.570312 278.484375 164.570312 256.367188 164.570312 245.28125 C 164.570312 243.859375 165.308594 242.535156 166.519531 241.785156 C 167.738281 241.035156 169.25 240.960938 170.527344 241.605469 C 181.132812 246.902344 203.269531 257.972656 214.8125 263.746094 Z M 214.8125 263.746094 " fill-opacity="1" fill-rule="evenodd"/><path fill="#192140" d="M 304.453125 213.941406 L 477.25 213.941406 C 481.792969 213.941406 485.480469 210.253906 485.480469 205.710938 C 485.480469 201.167969 481.792969 197.484375 477.25 197.484375 L 304.453125 197.484375 C 299.910156 197.484375 296.226562 201.167969 296.226562 205.710938 C 296.226562 210.253906 299.910156 213.941406 304.453125 213.941406 Z M 304.453125 213.941406 " fill-opacity="1" fill-rule="evenodd"/><path fill="#192140" d="M 304.453125 246.855469 L 452.566406 246.855469 C 457.109375 246.855469 460.792969 243.167969 460.792969 238.625 C 460.792969 234.082031 457.109375 230.398438 452.566406 230.398438 L 304.453125 230.398438 C 299.910156 230.398438 296.226562 234.082031 296.226562 238.625 C 296.226562 243.167969 299.910156 246.855469 304.453125 246.855469 Z M 304.453125 246.855469 " fill-opacity="1" fill-rule="evenodd"/><path fill="#192140" d="M 304.453125 279.769531 L 460.792969 279.769531 C 465.335938 279.769531 469.023438 276.082031 469.023438 271.539062 C 469.023438 266.996094 465.335938 263.3125 460.792969 263.3125 L 304.453125 263.3125 C 299.910156 263.3125 296.226562 266.996094 296.226562 271.539062 C 296.226562 276.082031 299.910156 279.769531 304.453125 279.769531 Z M 304.453125 279.769531 " fill-opacity="1" fill-rule="evenodd"/><path fill="#192140" d="M 304.453125 312.683594 L 399.082031 312.683594 C 403.621094 312.683594 407.308594 308.996094 407.308594 304.453125 C 407.308594 299.910156 403.621094 296.226562 399.082031 296.226562 L 304.453125 296.226562 C 299.910156 296.226562 296.226562 299.910156 296.226562 304.453125 C 296.226562 308.996094 299.910156 312.683594 304.453125 312.683594 Z M 304.453125 312.683594 " fill-opacity="1" fill-rule="evenodd"/><path fill="#192140" d="M 111.085938 172.796875 C 102 172.796875 94.628906 165.425781 94.628906 156.339844 C 94.628906 147.257812 102 139.882812 111.085938 139.882812 L 464.90625 139.882812 C 473.992188 139.882812 481.363281 147.257812 481.363281 156.339844 C 481.363281 165.425781 473.992188 172.796875 464.90625 172.796875 Z M 111.085938 172.796875 " fill-opacity="1" fill-rule="evenodd"/><g fill="#192140" fill-opacity="1"><g transform="translate(47.666014, 560.279301)"><g><path d="M 25.453125 -30.984375 L 25.453125 -25.859375 L 10.828125 -25.859375 L 10.828125 -17.671875 L 24.375 -17.671875 L 24.375 -12.546875 L 10.828125 -12.546875 L 10.828125 0 L 3.9375 0 L 3.9375 -30.984375 Z M 25.453125 -30.984375 "/></g></g></g><g fill="#192140" fill-opacity="1"><g transform="translate(74.517778, 560.279301)"><g><path d="M 9.234375 -17.671875 C 10.203125 -18.960938 11.253906 -19.96875 12.390625 -20.6875 C 13.523438 -21.414062 14.617188 -21.78125 15.671875 -21.78125 C 16.148438 -21.78125 16.609375 -21.765625 17.046875 -21.734375 C 17.492188 -21.710938 17.910156 -21.640625 18.296875 -21.515625 L 18.296875 -15.859375 C 17.546875 -16.003906 16.90625 -16.09375 16.375 -16.125 C 15.84375 -16.15625 15.335938 -16.171875 14.859375 -16.171875 C 13.984375 -16.171875 13.050781 -15.890625 12.0625 -15.328125 C 11.082031 -14.773438 10.234375 -14.101562 9.515625 -13.3125 L 9.515625 0 L 2.984375 0 L 2.984375 -13.8125 C 2.984375 -14.351562 2.972656 -15.082031 2.953125 -16 C 2.941406 -16.925781 2.914062 -17.878906 2.875 -18.859375 C 2.832031 -19.847656 2.765625 -20.703125 2.671875 -21.421875 L 8.78125 -21.421875 C 8.90625 -20.753906 9 -20.113281 9.0625 -19.5 C 9.125 -18.882812 9.179688 -18.273438 9.234375 -17.671875 Z M 9.234375 -17.671875 "/></g></g></g><g fill="#192140" fill-opacity="1"><g transform="translate(92.94724, 560.279301)"><g><path d="M 24.6875 -11.140625 C 24.6875 -8.847656 24.179688 -6.828125 23.171875 -5.078125 C 22.160156 -3.328125 20.765625 -1.953125 18.984375 -0.953125 C 17.203125 0.046875 15.175781 0.546875 12.90625 0.546875 C 10.644531 0.546875 8.644531 0.09375 6.90625 -0.8125 C 5.164062 -1.71875 3.8125 -3.007812 2.84375 -4.6875 C 1.882812 -6.363281 1.40625 -8.363281 1.40625 -10.6875 C 1.40625 -12.925781 1.925781 -14.90625 2.96875 -16.625 C 4.007812 -18.34375 5.425781 -19.703125 7.21875 -20.703125 C 9.019531 -21.703125 11.035156 -22.203125 13.265625 -22.203125 C 15.535156 -22.203125 17.519531 -21.769531 19.21875 -20.90625 C 20.925781 -20.039062 22.265625 -18.785156 23.234375 -17.140625 C 24.203125 -15.492188 24.6875 -13.492188 24.6875 -11.140625 Z M 8.15625 -11 C 8.15625 -8.738281 8.539062 -6.90625 9.3125 -5.5 C 10.082031 -4.09375 11.328125 -3.390625 13.046875 -3.390625 C 14.796875 -3.390625 16.054688 -4.066406 16.828125 -5.421875 C 17.597656 -6.785156 17.984375 -8.484375 17.984375 -10.515625 C 17.984375 -12.742188 17.640625 -14.585938 16.953125 -16.046875 C 16.273438 -17.515625 15.046875 -18.25 13.265625 -18.25 C 11.515625 -18.25 10.222656 -17.566406 9.390625 -16.203125 C 8.566406 -14.847656 8.15625 -13.113281 8.15625 -11 Z M 8.15625 -11 "/></g></g></g><g fill="#192140" fill-opacity="1"><g transform="translate(119.029228, 560.279301)"><g><path d="M 9.1875 -19.0625 C 10.15625 -20 11.21875 -20.707031 12.375 -21.1875 C 13.539062 -21.675781 14.820312 -21.921875 16.21875 -21.921875 C 18.632812 -21.921875 20.503906 -21.253906 21.828125 -19.921875 C 23.160156 -18.597656 23.828125 -16.679688 23.828125 -14.171875 L 23.828125 0 L 17.296875 0 L 17.296875 -13.265625 C 17.296875 -15.898438 16.078125 -17.21875 13.640625 -17.21875 C 12.878906 -17.21875 12.113281 -17.035156 11.34375 -16.671875 C 10.570312 -16.304688 9.929688 -15.835938 9.421875 -15.265625 L 9.421875 0 L 2.984375 0 L 2.984375 -21.421875 L 9.1875 -21.421875 Z M 9.1875 -19.0625 "/></g></g></g><g fill="#192140" fill-opacity="1"><g transform="translate(145.699877, 560.279301)"><g><path d="M 10.015625 -7.65625 C 10.015625 -6.351562 10.34375 -5.414062 11 -4.84375 C 11.664062 -4.269531 12.785156 -3.984375 14.359375 -3.984375 C 14.835938 -3.984375 15.347656 -4.015625 15.890625 -4.078125 C 16.441406 -4.140625 16.988281 -4.210938 17.53125 -4.296875 L 17.53125 -0.453125 C 16.75 -0.210938 15.875 -0.0078125 14.90625 0.15625 C 13.9375 0.320312 12.925781 0.40625 11.875 0.40625 C 10.332031 0.40625 8.929688 0.1875 7.671875 -0.25 C 6.421875 -0.6875 5.425781 -1.390625 4.6875 -2.359375 C 3.945312 -3.328125 3.578125 -4.578125 3.578125 -6.109375 L 3.578125 -17.21875 L 0.546875 -17.21875 L 0.546875 -21.421875 L 3.765625 -21.421875 L 5.15625 -26.6875 L 10.015625 -26.6875 L 10.015625 -21.421875 L 17.390625 -21.421875 L 17.390625 -17.21875 L 10.015625 -17.21875 Z M 10.015625 -7.65625 "/></g></g></g><g fill="#192140" fill-opacity="1"><g transform="translate(163.450121, 560.279301)"><g><path d="M 12.8125 -22.15625 C 15.71875 -22.15625 17.992188 -21.289062 19.640625 -19.5625 C 21.285156 -17.84375 22.109375 -15.335938 22.109375 -12.046875 L 22.109375 -10.328125 L 7.84375 -10.328125 C 7.988281 -8.273438 8.601562 -6.710938 9.6875 -5.640625 C 10.78125 -4.566406 12.289062 -4.03125 14.21875 -4.03125 C 15.550781 -4.03125 16.890625 -4.1875 18.234375 -4.5 C 19.578125 -4.820312 20.820312 -5.222656 21.96875 -5.703125 L 21.96875 -1.625 C 20.851562 -0.988281 19.488281 -0.46875 17.875 -0.0625 C 16.257812 0.34375 14.585938 0.546875 12.859375 0.546875 C 10.660156 0.546875 8.691406 0.109375 6.953125 -0.765625 C 5.210938 -1.640625 3.84375 -2.90625 2.84375 -4.5625 C 1.851562 -6.226562 1.359375 -8.222656 1.359375 -10.546875 C 1.359375 -12.722656 1.828125 -14.6875 2.765625 -16.4375 C 3.703125 -18.1875 5.03125 -19.578125 6.75 -20.609375 C 8.46875 -21.640625 10.488281 -22.15625 12.8125 -22.15625 Z M 16.21875 -13.90625 C 16.0625 -16.894531 14.765625 -18.390625 12.328125 -18.390625 C 11.085938 -18.390625 10.066406 -17.972656 9.265625 -17.140625 C 8.460938 -16.316406 7.972656 -15.238281 7.796875 -13.90625 Z M 16.21875 -13.90625 "/></g></g></g><g fill="#192140" fill-opacity="1"><g transform="translate(186.996361, 560.279301)"><g><path d="M 9.1875 -19.0625 C 10.15625 -20 11.21875 -20.707031 12.375 -21.1875 C 13.539062 -21.675781 14.820312 -21.921875 16.21875 -21.921875 C 18.632812 -21.921875 20.503906 -21.253906 21.828125 -19.921875 C 23.160156 -18.597656 23.828125 -16.679688 23.828125 -14.171875 L 23.828125 0 L 17.296875 0 L 17.296875 -13.265625 C 17.296875 -15.898438 16.078125 -17.21875 13.640625 -17.21875 C 12.878906 -17.21875 12.113281 -17.035156 11.34375 -16.671875 C 10.570312 -16.304688 9.929688 -15.835938 9.421875 -15.265625 L 9.421875 0 L 2.984375 0 L 2.984375 -21.421875 L 9.1875 -21.421875 Z M 9.1875 -19.0625 "/></g></g></g><g fill="#192140" fill-opacity="1"><g transform="translate(213.66701, 560.279301)"><g><path d="M 17.21875 -21.203125 L 17.21875 -33.46875 L 23.546875 -33.46875 L 23.546875 0 L 17.484375 0 L 17.484375 -2.171875 C 16.515625 -1.234375 15.5 -0.5625 14.4375 -0.15625 C 13.382812 0.25 12.238281 0.453125 11 0.453125 C 9.070312 0.453125 7.390625 -0.00390625 5.953125 -0.921875 C 4.523438 -1.847656 3.410156 -3.132812 2.609375 -4.78125 C 1.804688 -6.425781 1.40625 -8.335938 1.40625 -10.515625 C 1.40625 -12.710938 1.910156 -14.671875 2.921875 -16.390625 C 3.929688 -18.117188 5.300781 -19.472656 7.03125 -20.453125 C 8.769531 -21.429688 10.726562 -21.921875 12.90625 -21.921875 C 14.382812 -21.921875 15.820312 -21.679688 17.21875 -21.203125 Z M 8.015625 -11.234375 C 8.015625 -8.816406 8.46875 -6.992188 9.375 -5.765625 C 10.28125 -4.546875 11.441406 -3.9375 12.859375 -3.9375 C 13.617188 -3.9375 14.375 -4.132812 15.125 -4.53125 C 15.882812 -4.925781 16.550781 -5.4375 17.125 -6.0625 L 17.125 -16.578125 C 15.851562 -17.335938 14.429688 -17.71875 12.859375 -17.71875 C 11.378906 -17.71875 10.203125 -17.117188 9.328125 -15.921875 C 8.453125 -14.722656 8.015625 -13.160156 8.015625 -11.234375 Z M 8.015625 -11.234375 "/></g></g></g><g fill="#192140" fill-opacity="1"><g transform="translate(240.201818, 560.279301)"><g/></g></g><g fill="#192140" fill-opacity="1"><g transform="translate(251.250447, 560.279301)"><g><path d="M 3.9375 -30.984375 L 14.125 -30.984375 C 17.507812 -30.984375 20.46875 -30.410156 23 -29.265625 C 25.539062 -28.117188 27.515625 -26.429688 28.921875 -24.203125 C 30.328125 -21.984375 31.03125 -19.273438 31.03125 -16.078125 C 31.03125 -12.691406 30.359375 -9.800781 29.015625 -7.40625 C 27.671875 -5.007812 25.78125 -3.175781 23.34375 -1.90625 C 20.914062 -0.632812 18.054688 0 14.765625 0 L 3.9375 0 Z M 10.828125 -4.9375 L 14.953125 -4.9375 C 17.578125 -4.9375 19.726562 -5.765625 21.40625 -7.421875 C 23.082031 -9.085938 23.921875 -11.703125 23.921875 -15.265625 C 23.921875 -17.796875 23.488281 -19.851562 22.625 -21.4375 C 21.757812 -23.03125 20.578125 -24.195312 19.078125 -24.9375 C 17.585938 -25.675781 15.894531 -26.046875 14 -26.046875 L 10.828125 -26.046875 Z M 10.828125 -4.9375 "/></g></g></g><g fill="#192140" fill-opacity="1"><g transform="translate(283.988788, 560.279301)"><g><path d="M 12.8125 -22.15625 C 15.71875 -22.15625 17.992188 -21.289062 19.640625 -19.5625 C 21.285156 -17.84375 22.109375 -15.335938 22.109375 -12.046875 L 22.109375 -10.328125 L 7.84375 -10.328125 C 7.988281 -8.273438 8.601562 -6.710938 9.6875 -5.640625 C 10.78125 -4.566406 12.289062 -4.03125 14.21875 -4.03125 C 15.550781 -4.03125 16.890625 -4.1875 18.234375 -4.5 C 19.578125 -4.820312 20.820312 -5.222656 21.96875 -5.703125 L 21.96875 -1.625 C 20.851562 -0.988281 19.488281 -0.46875 17.875 -0.0625 C 16.257812 0.34375 14.585938 0.546875 12.859375 0.546875 C 10.660156 0.546875 8.691406 0.109375 6.953125 -0.765625 C 5.210938 -1.640625 3.84375 -2.90625 2.84375 -4.5625 C 1.851562 -6.226562 1.359375 -8.222656 1.359375 -10.546875 C 1.359375 -12.722656 1.828125 -14.6875 2.765625 -16.4375 C 3.703125 -18.1875 5.03125 -19.578125 6.75 -20.609375 C 8.46875 -21.640625 10.488281 -22.15625 12.8125 -22.15625 Z M 16.21875 -13.90625 C 16.0625 -16.894531 14.765625 -18.390625 12.328125 -18.390625 C 11.085938 -18.390625 10.066406 -17.972656 9.265625 -17.140625 C 8.460938 -16.316406 7.972656 -15.238281 7.796875 -13.90625 Z M 16.21875 -13.90625 "/></g></g></g><g fill="#192140" fill-opacity="1"><g transform="translate(307.535029, 560.279301)"><g><path d="M 11.953125 -6.0625 L 17.484375 -21.421875 L 23.546875 -21.421875 L 15 0.140625 L 8.203125 0.140625 L 0.5 -21.421875 L 7.15625 -21.421875 Z M 11.953125 -6.0625 "/></g></g></g><g fill="#192140" fill-opacity="1"><g transform="translate(331.579363, 560.279301)"><g><path d="M 12.8125 -22.15625 C 15.71875 -22.15625 17.992188 -21.289062 19.640625 -19.5625 C 21.285156 -17.84375 22.109375 -15.335938 22.109375 -12.046875 L 22.109375 -10.328125 L 7.84375 -10.328125 C 7.988281 -8.273438 8.601562 -6.710938 9.6875 -5.640625 C 10.78125 -4.566406 12.289062 -4.03125 14.21875 -4.03125 C 15.550781 -4.03125 16.890625 -4.1875 18.234375 -4.5 C 19.578125 -4.820312 20.820312 -5.222656 21.96875 -5.703125 L 21.96875 -1.625 C 20.851562 -0.988281 19.488281 -0.46875 17.875 -0.0625 C 16.257812 0.34375 14.585938 0.546875 12.859375 0.546875 C 10.660156 0.546875 8.691406 0.109375 6.953125 -0.765625 C 5.210938 -1.640625 3.84375 -2.90625 2.84375 -4.5625 C 1.851562 -6.226562 1.359375 -8.222656 1.359375 -10.546875 C 1.359375 -12.722656 1.828125 -14.6875 2.765625 -16.4375 C 3.703125 -18.1875 5.03125 -19.578125 6.75 -20.609375 C 8.46875 -21.640625 10.488281 -22.15625 12.8125 -22.15625 Z M 16.21875 -13.90625 C 16.0625 -16.894531 14.765625 -18.390625 12.328125 -18.390625 C 11.085938 -18.390625 10.066406 -17.972656 9.265625 -17.140625 C 8.460938 -16.316406 7.972656 -15.238281 7.796875 -13.90625 Z M 16.21875 -13.90625 "/></g></g></g><g fill="#192140" fill-opacity="1"><g transform="translate(355.125604, 560.279301)"><g><path d="M 9.515625 0 L 3.125 0 L 3.125 -33.46875 L 9.515625 -33.46875 Z M 9.515625 0 "/></g></g></g><g fill="#192140" fill-opacity="1"><g transform="translate(367.759079, 560.279301)"><g><path d="M 24.6875 -11.140625 C 24.6875 -8.847656 24.179688 -6.828125 23.171875 -5.078125 C 22.160156 -3.328125 20.765625 -1.953125 18.984375 -0.953125 C 17.203125 0.046875 15.175781 0.546875 12.90625 0.546875 C 10.644531 0.546875 8.644531 0.09375 6.90625 -0.8125 C 5.164062 -1.71875 3.8125 -3.007812 2.84375 -4.6875 C 1.882812 -6.363281 1.40625 -8.363281 1.40625 -10.6875 C 1.40625 -12.925781 1.925781 -14.90625 2.96875 -16.625 C 4.007812 -18.34375 5.425781 -19.703125 7.21875 -20.703125 C 9.019531 -21.703125 11.035156 -22.203125 13.265625 -22.203125 C 15.535156 -22.203125 17.519531 -21.769531 19.21875 -20.90625 C 20.925781 -20.039062 22.265625 -18.785156 23.234375 -17.140625 C 24.203125 -15.492188 24.6875 -13.492188 24.6875 -11.140625 Z M 8.15625 -11 C 8.15625 -8.738281 8.539062 -6.90625 9.3125 -5.5 C 10.082031 -4.09375 11.328125 -3.390625 13.046875 -3.390625 C 14.796875 -3.390625 16.054688 -4.066406 16.828125 -5.421875 C 17.597656 -6.785156 17.984375 -8.484375 17.984375 -10.515625 C 17.984375 -12.742188 17.640625 -14.585938 16.953125 -16.046875 C 16.273438 -17.515625 15.046875 -18.25 13.265625 -18.25 C 11.515625 -18.25 10.222656 -17.566406 9.390625 -16.203125 C 8.566406 -14.847656 8.15625 -13.113281 8.15625 -11 Z M 8.15625 -11 "/></g></g></g><g fill="#192140" fill-opacity="1"><g transform="translate(393.841079, 560.279301)"><g><path d="M 9.1875 -19.390625 C 10.25 -20.265625 11.300781 -20.90625 12.34375 -21.3125 C 13.382812 -21.71875 14.507812 -21.921875 15.71875 -21.921875 C 17.53125 -21.921875 19.144531 -21.519531 20.5625 -20.71875 C 21.976562 -19.914062 23.09375 -18.789062 23.90625 -17.34375 C 24.726562 -15.894531 25.140625 -14.175781 25.140625 -12.1875 C 25.140625 -9.738281 24.617188 -7.5625 23.578125 -5.65625 C 22.535156 -3.757812 21.113281 -2.265625 19.3125 -1.171875 C 17.519531 -0.0859375 15.460938 0.453125 13.140625 0.453125 C 12.617188 0.453125 12.019531 0.398438 11.34375 0.296875 C 10.664062 0.191406 10.007812 0.0625 9.375 -0.09375 L 9.375 10.28125 L 2.984375 10.28125 L 2.984375 -21.421875 L 9.1875 -21.421875 Z M 9.421875 -4.53125 C 10.628906 -3.894531 11.957031 -3.578125 13.40625 -3.578125 C 14.34375 -3.578125 15.195312 -3.898438 15.96875 -4.546875 C 16.738281 -5.203125 17.359375 -6.101562 17.828125 -7.25 C 18.296875 -8.394531 18.53125 -9.691406 18.53125 -11.140625 C 18.53125 -13.285156 18.046875 -14.867188 17.078125 -15.890625 C 16.109375 -16.921875 14.929688 -17.4375 13.546875 -17.4375 C 12.878906 -17.4375 12.175781 -17.269531 11.4375 -16.9375 C 10.695312 -16.601562 10.023438 -16.164062 9.421875 -15.625 Z M 9.421875 -4.53125 "/></g></g></g><g fill="#192140" fill-opacity="1"><g transform="translate(420.375875, 560.279301)"><g><path d="M 22.234375 -18.984375 C 23.410156 -19.972656 24.554688 -20.707031 25.671875 -21.1875 C 26.796875 -21.675781 28.1875 -21.921875 29.84375 -21.921875 C 32.226562 -21.921875 34.046875 -21.238281 35.296875 -19.875 C 36.554688 -18.519531 37.1875 -16.632812 37.1875 -14.21875 L 37.1875 0 L 30.671875 0 L 30.671875 -13.359375 C 30.671875 -14.691406 30.390625 -15.664062 29.828125 -16.28125 C 29.265625 -16.90625 28.367188 -17.21875 27.140625 -17.21875 C 25.742188 -17.21875 24.425781 -16.640625 23.1875 -15.484375 C 23.21875 -15.273438 23.234375 -15.082031 23.234375 -14.90625 L 23.234375 0 L 16.765625 0 L 16.765625 -13.3125 C 16.765625 -15.914062 15.722656 -17.21875 13.640625 -17.21875 C 12.847656 -17.21875 12.082031 -17.039062 11.34375 -16.6875 C 10.601562 -16.34375 9.960938 -15.867188 9.421875 -15.265625 L 9.421875 0 L 2.984375 0 L 2.984375 -21.421875 L 9.1875 -21.421875 L 9.1875 -19.109375 C 10.28125 -20.109375 11.390625 -20.828125 12.515625 -21.265625 C 13.648438 -21.703125 14.957031 -21.921875 16.4375 -21.921875 C 19.21875 -21.921875 21.148438 -20.941406 22.234375 -18.984375 Z M 22.234375 -18.984375 "/></g></g></g><g fill="#192140" fill-opacity="1"><g transform="translate(460.359173, 560.279301)"><g><path d="M 12.8125 -22.15625 C 15.71875 -22.15625 17.992188 -21.289062 19.640625 -19.5625 C 21.285156 -17.84375 22.109375 -15.335938 22.109375 -12.046875 L 22.109375 -10.328125 L 7.84375 -10.328125 C 7.988281 -8.273438 8.601562 -6.710938 9.6875 -5.640625 C 10.78125 -4.566406 12.289062 -4.03125 14.21875 -4.03125 C 15.550781 -4.03125 16.890625 -4.1875 18.234375 -4.5 C 19.578125 -4.820312 20.820312 -5.222656 21.96875 -5.703125 L 21.96875 -1.625 C 20.851562 -0.988281 19.488281 -0.46875 17.875 -0.0625 C 16.257812 0.34375 14.585938 0.546875 12.859375 0.546875 C 10.660156 0.546875 8.691406 0.109375 6.953125 -0.765625 C 5.210938 -1.640625 3.84375 -2.90625 2.84375 -4.5625 C 1.851562 -6.226562 1.359375 -8.222656 1.359375 -10.546875 C 1.359375 -12.722656 1.828125 -14.6875 2.765625 -16.4375 C 3.703125 -18.1875 5.03125 -19.578125 6.75 -20.609375 C 8.46875 -21.640625 10.488281 -22.15625 12.8125 -22.15625 Z M 16.21875 -13.90625 C 16.0625 -16.894531 14.765625 -18.390625 12.328125 -18.390625 C 11.085938 -18.390625 10.066406 -17.972656 9.265625 -17.140625 C 8.460938 -16.316406 7.972656 -15.238281 7.796875 -13.90625 Z M 16.21875 -13.90625 "/></g></g></g><g fill="#192140" fill-opacity="1"><g transform="translate(483.905437, 560.279301)"><g><path d="M 9.1875 -19.0625 C 10.15625 -20 11.21875 -20.707031 12.375 -21.1875 C 13.539062 -21.675781 14.820312 -21.921875 16.21875 -21.921875 C 18.632812 -21.921875 20.503906 -21.253906 21.828125 -19.921875 C 23.160156 -18.597656 23.828125 -16.679688 23.828125 -14.171875 L 23.828125 0 L 17.296875 0 L 17.296875 -13.265625 C 17.296875 -15.898438 16.078125 -17.21875 13.640625 -17.21875 C 12.878906 -17.21875 12.113281 -17.035156 11.34375 -16.671875 C 10.570312 -16.304688 9.929688 -15.835938 9.421875 -15.265625 L 9.421875 0 L 2.984375 0 L 2.984375 -21.421875 L 9.1875 -21.421875 Z M 9.1875 -19.0625 "/></g></g></g><g fill="#192140" fill-opacity="1"><g transform="translate(510.576075, 560.279301)"><g><path d="M 10.015625 -7.65625 C 10.015625 -6.351562 10.34375 -5.414062 11 -4.84375 C 11.664062 -4.269531 12.785156 -3.984375 14.359375 -3.984375 C 14.835938 -3.984375 15.347656 -4.015625 15.890625 -4.078125 C 16.441406 -4.140625 16.988281 -4.210938 17.53125 -4.296875 L 17.53125 -0.453125 C 16.75 -0.210938 15.875 -0.0078125 14.90625 0.15625 C 13.9375 0.320312 12.925781 0.40625 11.875 0.40625 C 10.332031 0.40625 8.929688 0.1875 7.671875 -0.25 C 6.421875 -0.6875 5.425781 -1.390625 4.6875 -2.359375 C 3.945312 -3.328125 3.578125 -4.578125 3.578125 -6.109375 L 3.578125 -17.21875 L 0.546875 -17.21875 L 0.546875 -21.421875 L 3.765625 -21.421875 L 5.15625 -26.6875 L 10.015625 -26.6875 L 10.015625 -21.421875 L 17.390625 -21.421875 L 17.390625 -17.21875 L 10.015625 -17.21875 Z M 10.015625 -7.65625 "/></g></g></g></svg>