<svg xmlns="http://www.w3.org/2000/svg" xmlns:xlink="http://www.w3.org/1999/xlink" width="768" zoomAndPan="magnify" viewBox="0 0 576 576" height="768" preserveAspectRatio="xMidYMid meet" version="1.0"><defs><g/><clipPath id="3522914ded"><path d="M 470 146 L 514.351562 146 L 514.351562 233 L 470 233 Z M 470 146 " clip-rule="nonzero"/></clipPath><clipPath id="7aa6530ee9"><path d="M 383 245 L 514.351562 245 L 514.351562 376 L 383 376 Z M 383 245 " clip-rule="nonzero"/></clipPath><clipPath id="49b3358a4a"><path d="M 58 55.546875 L 380 55.546875 L 380 520 L 58 520 Z M 58 55.546875 " clip-rule="nonzero"/></clipPath></defs><g fill="#192140" fill-opacity="1"><g transform="translate(144.275004, 560.279301)"><g><path d="M 30.03125 -11.875 C 30.03125 -7.820312 28.910156 -4.722656 26.671875 -2.578125 C 24.441406 -0.429688 21.164062 0.640625 16.84375 0.640625 C 12.769531 0.640625 9.5625 -0.316406 7.21875 -2.234375 C 4.882812 -4.160156 3.71875 -7.191406 3.71875 -11.328125 L 3.71875 -30.984375 L 10.59375 -30.984375 L 10.59375 -11.421875 C 10.59375 -9.210938 11.113281 -7.523438 12.15625 -6.359375 C 13.195312 -5.203125 14.851562 -4.625 17.125 -4.625 C 19.382812 -4.625 20.972656 -5.234375 21.890625 -6.453125 C 22.816406 -7.679688 23.28125 -9.488281 23.28125 -11.875 L 23.28125 -30.984375 L 30.03125 -30.984375 Z M 30.03125 -11.875 "/></g></g></g><g fill="#192140" fill-opacity="1"><g transform="translate(177.964234, 560.279301)"><g><path d="M 19.65625 -15.984375 L 30.53125 0 L 22.234375 0 L 15.265625 -10.875 L 8.296875 0 L 0.640625 0 L 11.453125 -15.765625 L 1.453125 -30.984375 L 9.6875 -30.984375 L 16.21875 -20.65625 L 22.6875 -30.984375 L 29.765625 -30.984375 Z M 19.65625 -15.984375 "/></g></g></g><g fill="#192140" fill-opacity="1"><g transform="translate(209.072444, 560.279301)"><g><path d="M 1.5 9.96875 L -2.359375 9.96875 L 12.90625 -33.75 L 16.765625 -33.75 Z M 1.5 9.96875 "/></g></g></g><g fill="#192140" fill-opacity="1"><g transform="translate(225.871775, 560.279301)"><g><path d="M 30.03125 -11.875 C 30.03125 -7.820312 28.910156 -4.722656 26.671875 -2.578125 C 24.441406 -0.429688 21.164062 0.640625 16.84375 0.640625 C 12.769531 0.640625 9.5625 -0.316406 7.21875 -2.234375 C 4.882812 -4.160156 3.71875 -7.191406 3.71875 -11.328125 L 3.71875 -30.984375 L 10.59375 -30.984375 L 10.59375 -11.421875 C 10.59375 -9.210938 11.113281 -7.523438 12.15625 -6.359375 C 13.195312 -5.203125 14.851562 -4.625 17.125 -4.625 C 19.382812 -4.625 20.972656 -5.234375 21.890625 -6.453125 C 22.816406 -7.679688 23.28125 -9.488281 23.28125 -11.875 L 23.28125 -30.984375 L 30.03125 -30.984375 Z M 30.03125 -11.875 "/></g></g></g><g fill="#192140" fill-opacity="1"><g transform="translate(259.561006, 560.279301)"><g><path d="M 11.328125 0 L 4.4375 0 L 4.4375 -30.984375 L 11.328125 -30.984375 Z M 11.328125 0 "/></g></g></g><g fill="#192140" fill-opacity="1"><g transform="translate(275.364152, 560.279301)"><g/></g></g><g fill="#192140" fill-opacity="1"><g transform="translate(286.41277, 560.279301)"><g><path d="M 3.9375 -30.984375 L 14.125 -30.984375 C 17.507812 -30.984375 20.46875 -30.410156 23 -29.265625 C 25.539062 -28.117188 27.515625 -26.429688 28.921875 -24.203125 C 30.328125 -21.984375 31.03125 -19.273438 31.03125 -16.078125 C 31.03125 -12.691406 30.359375 -9.800781 29.015625 -7.40625 C 27.671875 -5.007812 25.78125 -3.175781 23.34375 -1.90625 C 20.914062 -0.632812 18.054688 0 14.765625 0 L 3.9375 0 Z M 10.828125 -4.9375 L 14.953125 -4.9375 C 17.578125 -4.9375 19.726562 -5.765625 21.40625 -7.421875 C 23.082031 -9.085938 23.921875 -11.703125 23.921875 -15.265625 C 23.921875 -17.796875 23.488281 -19.851562 22.625 -21.4375 C 21.757812 -23.03125 20.578125 -24.195312 19.078125 -24.9375 C 17.585938 -25.675781 15.894531 -26.046875 14 -26.046875 L 10.828125 -26.046875 Z M 10.828125 -4.9375 "/></g></g></g><g fill="#192140" fill-opacity="1"><g transform="translate(319.151099, 560.279301)"><g><path d="M 12.8125 -22.15625 C 15.71875 -22.15625 17.992188 -21.289062 19.640625 -19.5625 C 21.285156 -17.84375 22.109375 -15.335938 22.109375 -12.046875 L 22.109375 -10.328125 L 7.84375 -10.328125 C 7.988281 -8.273438 8.601562 -6.710938 9.6875 -5.640625 C 10.78125 -4.566406 12.289062 -4.03125 14.21875 -4.03125 C 15.550781 -4.03125 16.890625 -4.1875 18.234375 -4.5 C 19.578125 -4.820312 20.820312 -5.222656 21.96875 -5.703125 L 21.96875 -1.625 C 20.851562 -0.988281 19.488281 -0.46875 17.875 -0.0625 C 16.257812 0.34375 14.585938 0.546875 12.859375 0.546875 C 10.660156 0.546875 8.691406 0.109375 6.953125 -0.765625 C 5.210938 -1.640625 3.84375 -2.90625 2.84375 -4.5625 C 1.851562 -6.226562 1.359375 -8.222656 1.359375 -10.546875 C 1.359375 -12.722656 1.828125 -14.6875 2.765625 -16.4375 C 3.703125 -18.1875 5.03125 -19.578125 6.75 -20.609375 C 8.46875 -21.640625 10.488281 -22.15625 12.8125 -22.15625 Z M 16.21875 -13.90625 C 16.0625 -16.894531 14.765625 -18.390625 12.328125 -18.390625 C 11.085938 -18.390625 10.066406 -17.972656 9.265625 -17.140625 C 8.460938 -16.316406 7.972656 -15.238281 7.796875 -13.90625 Z M 16.21875 -13.90625 "/></g></g></g><g fill="#192140" fill-opacity="1"><g transform="translate(342.697329, 560.279301)"><g><path d="M 19.890625 -6.890625 C 19.890625 -4.585938 18.914062 -2.785156 16.96875 -1.484375 C 15.019531 -0.191406 12.457031 0.453125 9.28125 0.453125 C 7.988281 0.453125 6.710938 0.359375 5.453125 0.171875 C 4.203125 -0.00390625 2.957031 -0.332031 1.71875 -0.8125 L 1.71875 -5.9375 C 3.164062 -5.175781 4.609375 -4.597656 6.046875 -4.203125 C 7.484375 -3.816406 8.941406 -3.625 10.421875 -3.625 C 11.691406 -3.625 12.613281 -3.816406 13.1875 -4.203125 C 13.757812 -4.597656 14.046875 -5.128906 14.046875 -5.796875 C 14.046875 -6.335938 13.867188 -6.765625 13.515625 -7.078125 C 13.171875 -7.398438 12.5625 -7.664062 11.6875 -7.875 L 7.84375 -8.828125 C 5.78125 -9.347656 4.257812 -10.101562 3.28125 -11.09375 C 2.300781 -12.09375 1.8125 -13.378906 1.8125 -14.953125 C 1.8125 -16.398438 2.238281 -17.660156 3.09375 -18.734375 C 3.957031 -19.804688 5.128906 -20.632812 6.609375 -21.21875 C 8.085938 -21.8125 9.765625 -22.109375 11.640625 -22.109375 C 12.910156 -22.109375 14.1875 -22.015625 15.46875 -21.828125 C 16.75 -21.648438 17.84375 -21.410156 18.75 -21.109375 L 18.75 -16.171875 C 17.507812 -16.742188 16.1875 -17.1875 14.78125 -17.5 C 13.382812 -17.820312 12.019531 -17.984375 10.6875 -17.984375 C 9.75 -17.984375 9.007812 -17.804688 8.46875 -17.453125 C 7.925781 -17.109375 7.65625 -16.632812 7.65625 -16.03125 C 7.65625 -15.039062 8.425781 -14.347656 9.96875 -13.953125 L 13.765625 -13 C 15.847656 -12.488281 17.390625 -11.78125 18.390625 -10.875 C 19.390625 -9.96875 19.890625 -8.640625 19.890625 -6.890625 Z M 19.890625 -6.890625 "/></g></g></g><g fill="#192140" fill-opacity="1"><g transform="translate(363.843675, 560.279301)"><g><path d="M 10.0625 -29.578125 C 10.0625 -28.546875 9.710938 -27.675781 9.015625 -26.96875 C 8.316406 -26.257812 7.441406 -25.90625 6.390625 -25.90625 C 5.359375 -25.90625 4.476562 -26.257812 3.75 -26.96875 C 3.03125 -27.675781 2.671875 -28.546875 2.671875 -29.578125 C 2.671875 -30.609375 3.039062 -31.476562 3.78125 -32.1875 C 4.519531 -32.894531 5.390625 -33.25 6.390625 -33.25 C 7.378906 -33.25 8.238281 -32.894531 8.96875 -32.1875 C 9.695312 -31.476562 10.0625 -30.609375 10.0625 -29.578125 Z M 9.5625 0 L 3.125 0 L 3.125 -21.421875 L 9.5625 -21.421875 Z M 9.5625 0 "/></g></g></g><g fill="#192140" fill-opacity="1"><g transform="translate(376.477127, 560.279301)"><g><path d="M 24.234375 -21.203125 L 24.234375 -16.984375 L 21.15625 -16.984375 L 19.5625 -17.171875 C 19.832031 -16.804688 20.066406 -16.421875 20.265625 -16.015625 C 20.460938 -15.609375 20.5625 -15.128906 20.5625 -14.578125 C 20.5625 -13.191406 20.257812 -12 19.65625 -11 C 19.050781 -10.007812 18.265625 -9.203125 17.296875 -8.578125 C 16.335938 -7.960938 15.273438 -7.507812 14.109375 -7.21875 C 12.941406 -6.9375 11.800781 -6.796875 10.6875 -6.796875 L 10.140625 -6.796875 C 9.960938 -6.796875 9.785156 -6.8125 9.609375 -6.84375 C 8.972656 -6.539062 8.65625 -6.128906 8.65625 -5.609375 C 8.65625 -5.335938 8.828125 -5.101562 9.171875 -4.90625 C 9.515625 -4.71875 10.171875 -4.546875 11.140625 -4.390625 C 12.378906 -4.242188 13.492188 -4.113281 14.484375 -4 C 15.484375 -3.894531 16.5 -3.769531 17.53125 -3.625 C 19.488281 -3.382812 21.003906 -2.796875 22.078125 -1.859375 C 23.148438 -0.921875 23.6875 0.332031 23.6875 1.90625 C 23.6875 3.800781 23.082031 5.375 21.875 6.625 C 20.664062 7.882812 19.085938 8.820312 17.140625 9.4375 C 15.191406 10.0625 13.101562 10.375 10.875 10.375 C 7.28125 10.375 4.664062 9.785156 3.03125 8.609375 C 1.40625 7.429688 0.59375 5.984375 0.59375 4.265625 C 0.59375 3.078125 1 2.0625 1.8125 1.21875 C 2.625 0.375 3.617188 -0.316406 4.796875 -0.859375 C 4.253906 -1.160156 3.804688 -1.53125 3.453125 -1.96875 C 3.109375 -2.40625 2.9375 -2.941406 2.9375 -3.578125 C 2.9375 -4.453125 3.238281 -5.222656 3.84375 -5.890625 C 4.445312 -6.554688 5.265625 -7.175781 6.296875 -7.75 C 5.023438 -8.320312 3.9375 -9.148438 3.03125 -10.234375 C 2.125 -11.328125 1.671875 -12.65625 1.671875 -14.21875 C 1.671875 -15.945312 2.15625 -17.382812 3.125 -18.53125 C 4.09375 -19.675781 5.316406 -20.539062 6.796875 -21.125 C 8.273438 -21.71875 9.769531 -22.015625 11.28125 -22.015625 C 12.25 -22.015625 13.15625 -21.9375 14 -21.78125 C 14.84375 -21.632812 15.597656 -21.441406 16.265625 -21.203125 Z M 17.578125 3.625 C 17.578125 3.019531 17.359375 2.519531 16.921875 2.125 C 16.484375 1.738281 15.75 1.453125 14.71875 1.265625 C 14.351562 1.203125 13.75 1.117188 12.90625 1.015625 C 12.0625 0.910156 11.1875 0.796875 10.28125 0.671875 C 9.375 0.554688 8.617188 0.46875 8.015625 0.40625 C 6.773438 1.132812 6.15625 2.117188 6.15625 3.359375 C 6.15625 4.410156 6.707031 5.226562 7.8125 5.8125 C 8.914062 6.40625 10.3125 6.703125 12 6.703125 C 13.875 6.703125 15.269531 6.398438 16.1875 5.796875 C 17.113281 5.191406 17.578125 4.46875 17.578125 3.625 Z M 7.703125 -14.671875 C 7.703125 -11.503906 8.878906 -9.921875 11.234375 -9.921875 C 12.265625 -9.921875 13.066406 -10.273438 13.640625 -10.984375 C 14.210938 -11.691406 14.5 -12.785156 14.5 -14.265625 C 14.5 -15.929688 14.210938 -17.117188 13.640625 -17.828125 C 13.066406 -18.535156 12.21875 -18.890625 11.09375 -18.890625 C 10.101562 -18.890625 9.289062 -18.539062 8.65625 -17.84375 C 8.019531 -17.15625 7.703125 -16.097656 7.703125 -14.671875 Z M 7.703125 -14.671875 "/></g></g></g><g fill="#192140" fill-opacity="1"><g transform="translate(401.019553, 560.279301)"><g><path d="M 9.1875 -19.0625 C 10.15625 -20 11.21875 -20.707031 12.375 -21.1875 C 13.539062 -21.675781 14.820312 -21.921875 16.21875 -21.921875 C 18.632812 -21.921875 20.503906 -21.253906 21.828125 -19.921875 C 23.160156 -18.597656 23.828125 -16.679688 23.828125 -14.171875 L 23.828125 0 L 17.296875 0 L 17.296875 -13.265625 C 17.296875 -15.898438 16.078125 -17.21875 13.640625 -17.21875 C 12.878906 -17.21875 12.113281 -17.035156 11.34375 -16.671875 C 10.570312 -16.304688 9.929688 -15.835938 9.421875 -15.265625 L 9.421875 0 L 2.984375 0 L 2.984375 -21.421875 L 9.1875 -21.421875 Z M 9.1875 -19.0625 "/></g></g></g><g clip-path="url(#3522914ded)"><path fill="#192140" d="M 514.363281 232.640625 C 514.199219 224.851562 513.386719 217.128906 511.925781 209.476562 C 510.460938 201.824219 508.367188 194.347656 505.644531 187.046875 C 502.921875 179.746094 499.605469 172.726562 495.699219 165.984375 C 491.789062 159.246094 487.34375 152.878906 482.363281 146.886719 L 470.046875 157.125 C 474.453125 162.421875 478.386719 168.050781 481.847656 174.011719 C 485.304688 179.972656 488.238281 186.179688 490.652344 192.636719 C 493.0625 199.089844 494.914062 205.703125 496.207031 212.472656 C 497.503906 219.242188 498.222656 226.070312 498.363281 232.960938 Z M 514.363281 232.640625 " fill-opacity="1" fill-rule="nonzero"/></g><g clip-path="url(#7aa6530ee9)"><path fill="#192140" d="M 383.414062 359.988281 L 384.53125 375.988281 C 386.609375 375.835938 388.683594 375.636719 390.753906 375.394531 C 392.824219 375.148438 394.886719 374.859375 396.945312 374.523438 C 399 374.183594 401.046875 373.804688 403.089844 373.375 C 405.128906 372.949219 407.15625 372.476562 409.175781 371.957031 C 411.195312 371.441406 413.199219 370.878906 415.195312 370.269531 C 417.1875 369.664062 419.167969 369.011719 421.132812 368.316406 C 423.097656 367.621094 425.042969 366.882812 426.976562 366.101562 C 428.90625 365.320312 430.820312 364.496094 432.714844 363.628906 C 434.609375 362.761719 436.484375 361.851562 438.339844 360.902344 C 440.195312 359.953125 442.027344 358.960938 443.835938 357.929688 C 445.648438 356.898438 447.433594 355.824219 449.199219 354.714844 C 450.960938 353.601562 452.699219 352.453125 454.410156 351.261719 C 456.121094 350.074219 457.804688 348.847656 459.460938 347.585938 C 461.117188 346.320312 462.746094 345.019531 464.347656 343.683594 C 465.945312 342.347656 467.515625 340.976562 469.050781 339.570312 C 470.589844 338.164062 472.097656 336.726562 473.570312 335.25 C 475.042969 333.777344 476.484375 332.273438 477.890625 330.734375 C 479.300781 329.199219 480.671875 327.632812 482.007812 326.03125 C 483.34375 324.433594 484.648438 322.808594 485.910156 321.152344 C 487.175781 319.496094 488.402344 317.8125 489.59375 316.101562 C 490.785156 314.390625 491.933594 312.652344 493.046875 310.890625 C 494.160156 309.128906 495.234375 307.34375 496.265625 305.53125 C 497.300781 303.722656 498.292969 301.890625 499.242188 300.039062 C 500.195312 298.183594 501.105469 296.308594 501.972656 294.414062 C 502.839844 292.519531 503.667969 290.605469 504.449219 288.675781 C 505.234375 286.746094 505.972656 284.796875 506.667969 282.832031 C 507.363281 280.867188 508.015625 278.890625 508.625 276.898438 C 509.234375 274.902344 509.796875 272.898438 510.316406 270.878906 C 510.835938 268.859375 511.308594 266.832031 511.738281 264.792969 C 512.167969 262.753906 512.550781 260.707031 512.886719 258.648438 C 513.226562 256.59375 513.515625 254.53125 513.761719 252.460938 C 514.007812 250.390625 514.207031 248.316406 514.363281 246.238281 L 498.363281 245.117188 C 498.226562 246.960938 498.050781 248.796875 497.835938 250.628906 C 497.617188 252.460938 497.359375 254.289062 497.0625 256.109375 C 496.761719 257.929688 496.425781 259.742188 496.046875 261.546875 C 495.667969 263.355469 495.246094 265.152344 494.789062 266.9375 C 494.328125 268.726562 493.832031 270.5 493.292969 272.265625 C 492.753906 274.03125 492.175781 275.785156 491.558594 277.523438 C 490.945312 279.261719 490.289062 280.988281 489.597656 282.695312 C 488.902344 284.40625 488.171875 286.101562 487.402344 287.777344 C 486.636719 289.457031 485.832031 291.117188 484.988281 292.757812 C 484.144531 294.398438 483.265625 296.019531 482.351562 297.625 C 481.4375 299.226562 480.488281 300.808594 479.503906 302.367188 C 478.519531 303.929688 477.5 305.464844 476.445312 306.980469 C 475.390625 308.496094 474.304688 309.988281 473.183594 311.453125 C 472.066406 312.917969 470.914062 314.359375 469.730469 315.777344 C 468.542969 317.191406 467.328125 318.578125 466.085938 319.941406 C 464.839844 321.300781 463.5625 322.632812 462.257812 323.9375 C 460.953125 325.242188 459.617188 326.515625 458.257812 327.761719 C 456.894531 329.007812 455.503906 330.222656 454.089844 331.40625 C 452.671875 332.585938 451.230469 333.738281 449.765625 334.855469 C 448.296875 335.976562 446.804688 337.0625 445.289062 338.113281 C 443.773438 339.167969 442.234375 340.183594 440.675781 341.167969 C 439.113281 342.152344 437.53125 343.101562 435.929688 344.015625 C 434.324219 344.929688 432.703125 345.804688 431.058594 346.648438 C 429.417969 347.488281 427.757812 348.292969 426.078125 349.058594 C 424.402344 349.828125 422.707031 350.558594 420.996094 351.25 C 419.285156 351.941406 417.5625 352.59375 415.820312 353.210938 C 414.082031 353.824219 412.328125 354.398438 410.5625 354.9375 C 408.796875 355.472656 407.023438 355.972656 405.234375 356.429688 C 403.445312 356.886719 401.648438 357.304688 399.84375 357.683594 C 398.039062 358.0625 396.222656 358.398438 394.402344 358.695312 C 392.582031 358.992188 390.753906 359.25 388.921875 359.464844 C 387.089844 359.679688 385.253906 359.855469 383.414062 359.988281 Z M 383.414062 359.988281 " fill-opacity="1" fill-rule="nonzero"/></g><g clip-path="url(#49b3358a4a)"><path fill="#192140" d="M 345.734375 59.535156 C 345.554688 59.261719 345.355469 59.003906 345.140625 58.757812 C 344.925781 58.511719 344.699219 58.277344 344.457031 58.058594 C 344.214844 57.839844 343.960938 57.636719 343.691406 57.449219 C 343.425781 57.261719 343.144531 57.089844 342.859375 56.9375 C 342.570312 56.78125 342.273438 56.648438 341.96875 56.53125 C 341.664062 56.414062 341.351562 56.316406 341.035156 56.234375 C 340.71875 56.15625 340.398438 56.097656 340.074219 56.058594 C 339.75 56.015625 339.421875 55.996094 339.097656 55.996094 C 338.769531 55.996094 338.445312 56.015625 338.121094 56.058594 C 337.796875 56.097656 337.476562 56.15625 337.15625 56.234375 C 336.839844 56.316406 336.53125 56.414062 336.226562 56.53125 C 335.917969 56.648438 335.625 56.78125 335.335938 56.9375 C 335.046875 57.089844 334.769531 57.261719 334.5 57.449219 C 334.234375 57.636719 333.980469 57.839844 333.734375 58.058594 C 333.492188 58.277344 333.265625 58.511719 333.050781 58.757812 C 332.835938 59.003906 332.640625 59.261719 332.457031 59.535156 L 299.738281 108.25 C 298.828125 109.605469 298.375 111.097656 298.378906 112.730469 L 298.378906 118.488281 L 296.140625 120.007812 C 285.925781 114.878906 275.261719 110.984375 264.144531 108.332031 C 254.972656 106.007812 245.667969 104.570312 236.226562 104.011719 C 236.691406 102.882812 236.957031 101.710938 237.023438 100.492188 C 237.035156 98.992188 236.757812 97.550781 236.1875 96.164062 C 235.621094 94.773438 234.804688 93.550781 233.746094 92.492188 L 216.546875 75.453125 C 216.015625 74.941406 215.4375 74.480469 214.820312 74.078125 C 214.199219 73.675781 213.546875 73.335938 212.859375 73.0625 C 212.175781 72.785156 211.46875 72.574219 210.746094 72.433594 C 210.019531 72.292969 209.285156 72.222656 208.546875 72.222656 C 207.808594 72.222656 207.074219 72.292969 206.351562 72.433594 C 205.625 72.574219 204.917969 72.785156 204.234375 73.0625 C 203.546875 73.335938 202.894531 73.675781 202.277344 74.078125 C 201.65625 74.480469 201.078125 74.941406 200.546875 75.453125 L 190.628906 85.851562 L 190.628906 71.453125 C 190.628906 70.714844 190.554688 69.980469 190.414062 69.253906 C 190.269531 68.527344 190.054688 67.820312 189.769531 67.136719 C 189.488281 66.453125 189.140625 65.804688 188.726562 65.1875 C 188.316406 64.570312 187.847656 64 187.324219 63.476562 C 186.800781 62.953125 186.230469 62.488281 185.617188 62.074219 C 185 61.664062 184.351562 61.316406 183.667969 61.03125 C 182.980469 60.75 182.277344 60.535156 181.550781 60.390625 C 180.824219 60.246094 180.089844 60.175781 179.351562 60.175781 L 155.351562 60.175781 C 154.609375 60.167969 153.871094 60.238281 153.140625 60.378906 C 152.410156 60.519531 151.699219 60.730469 151.011719 61.011719 C 150.320312 61.292969 149.667969 61.636719 149.046875 62.046875 C 148.425781 62.457031 147.851562 62.925781 147.324219 63.449219 C 146.796875 63.972656 146.324219 64.542969 145.910156 65.164062 C 145.496094 65.78125 145.144531 66.433594 144.859375 67.117188 C 144.574219 67.804688 144.355469 68.515625 144.210938 69.242188 C 144.066406 69.972656 143.992188 70.710938 143.992188 71.453125 L 143.992188 85.851562 L 133.59375 75.453125 C 133.066406 74.929688 132.496094 74.464844 131.875 74.054688 C 131.257812 73.644531 130.605469 73.296875 129.917969 73.015625 C 129.234375 72.730469 128.527344 72.519531 127.800781 72.375 C 127.070312 72.230469 126.335938 72.160156 125.59375 72.160156 C 124.851562 72.160156 124.117188 72.230469 123.390625 72.375 C 122.660156 72.519531 121.953125 72.730469 121.269531 73.015625 C 120.582031 73.296875 119.929688 73.644531 119.3125 74.054688 C 118.695312 74.464844 118.121094 74.929688 117.59375 75.453125 L 100.875 92.652344 C 100.347656 93.175781 99.878906 93.746094 99.464844 94.363281 C 99.050781 94.980469 98.699219 95.632812 98.414062 96.320312 C 98.128906 97.003906 97.914062 97.714844 97.765625 98.441406 C 97.621094 99.171875 97.550781 99.90625 97.550781 100.652344 C 97.550781 101.394531 97.621094 102.128906 97.765625 102.859375 C 97.914062 103.589844 98.128906 104.296875 98.414062 104.984375 C 98.699219 105.667969 99.050781 106.320312 99.464844 106.9375 C 99.878906 107.554688 100.347656 108.125 100.875 108.652344 L 111.195312 118.808594 L 96.714844 118.808594 C 95.976562 118.808594 95.242188 118.882812 94.515625 119.027344 C 93.789062 119.171875 93.085938 119.382812 92.402344 119.667969 C 91.714844 119.953125 91.066406 120.300781 90.449219 120.710938 C 89.835938 121.121094 89.265625 121.589844 88.742188 122.113281 C 88.21875 122.636719 87.75 123.207031 87.339844 123.824219 C 86.925781 124.4375 86.578125 125.089844 86.296875 125.773438 C 86.011719 126.457031 85.800781 127.160156 85.65625 127.886719 C 85.511719 128.613281 85.4375 129.347656 85.4375 130.089844 L 85.4375 154.085938 C 85.441406 154.824219 85.519531 155.554688 85.667969 156.277344 C 85.816406 156.996094 86.035156 157.699219 86.320312 158.378906 C 86.605469 159.058594 86.953125 159.703125 87.367188 160.316406 C 87.777344 160.925781 88.246094 161.492188 88.769531 162.011719 C 89.292969 162.53125 89.859375 162.992188 90.476562 163.402344 C 91.089844 163.808594 91.738281 164.152344 92.417969 164.433594 C 93.101562 164.714844 93.804688 164.929688 94.527344 165.070312 C 95.25 165.214844 95.980469 165.285156 96.714844 165.285156 L 111.195312 165.285156 L 100.875 176.003906 C 100.457031 176.433594 100.078125 176.894531 99.734375 177.386719 C 99.390625 177.878906 99.085938 178.394531 98.828125 178.933594 C 98.566406 179.476562 98.351562 180.03125 98.183594 180.609375 C 98.011719 181.183594 97.890625 181.769531 97.816406 182.363281 C 97.738281 182.957031 97.710938 183.554688 97.734375 184.15625 C 97.753906 184.753906 97.824219 185.347656 97.941406 185.9375 C 98.058594 186.523438 98.222656 187.097656 98.433594 187.660156 C 98.644531 188.222656 98.898438 188.761719 99.195312 189.285156 C 95.792969 197.878906 93.417969 206.753906 92.066406 215.898438 C 90.714844 225.046875 90.425781 234.226562 91.195312 243.4375 L 60.800781 301.355469 C 60.414062 302.074219 60.070312 302.816406 59.773438 303.578125 C 59.480469 304.339844 59.230469 305.113281 59.03125 305.90625 C 58.828125 306.699219 58.675781 307.5 58.574219 308.3125 C 58.472656 309.121094 58.417969 309.9375 58.414062 310.753906 C 58.414062 311.570312 58.460938 312.386719 58.558594 313.195312 C 58.652344 314.007812 58.800781 314.8125 58.996094 315.605469 C 59.191406 316.398438 59.433594 317.175781 59.726562 317.941406 C 60.015625 318.703125 60.351562 319.445312 60.734375 320.167969 C 61.117188 320.890625 61.539062 321.589844 62.007812 322.257812 C 62.476562 322.929688 62.980469 323.570312 63.527344 324.175781 C 64.074219 324.785156 64.652344 325.359375 65.269531 325.894531 C 65.886719 326.433594 66.53125 326.929688 67.207031 327.386719 C 67.886719 327.847656 68.589844 328.261719 69.316406 328.632812 C 70.042969 329.003906 70.792969 329.332031 71.558594 329.609375 C 72.328125 329.890625 73.109375 330.121094 73.90625 330.308594 C 74.703125 330.492188 75.503906 330.625 76.320312 330.710938 L 82.398438 331.191406 L 89.917969 363.1875 C 90.6875 369.640625 92.164062 375.921875 94.351562 382.039062 C 96.539062 388.15625 99.378906 393.953125 102.875 399.425781 C 112.875 414.542969 137.671875 422.222656 156.472656 421.984375 L 157.273438 421.984375 C 157.660156 422.386719 157.847656 422.867188 157.832031 423.425781 L 157.832031 511.976562 C 157.832031 512.5 157.882812 513.023438 157.984375 513.539062 C 158.085938 514.050781 158.238281 514.550781 158.441406 515.039062 C 158.640625 515.523438 158.886719 515.984375 159.179688 516.421875 C 159.472656 516.859375 159.804688 517.261719 160.175781 517.632812 C 160.546875 518.003906 160.949219 518.335938 161.386719 518.628906 C 161.824219 518.917969 162.285156 519.164062 162.769531 519.367188 C 163.253906 519.566406 163.753906 519.71875 164.269531 519.820312 C 164.785156 519.925781 165.304688 519.976562 165.832031 519.976562 L 333.816406 519.976562 C 334.121094 519.984375 334.421875 519.972656 334.722656 519.945312 C 335.027344 519.917969 335.324219 519.875 335.625 519.816406 C 335.921875 519.753906 336.210938 519.675781 336.5 519.582031 C 336.789062 519.488281 337.070312 519.378906 337.347656 519.25 C 337.621094 519.125 337.890625 518.984375 338.148438 518.824219 C 338.410156 518.667969 338.660156 518.5 338.898438 518.3125 C 339.140625 518.128906 339.367188 517.929688 339.585938 517.71875 C 339.804688 517.507812 340.007812 517.285156 340.199219 517.050781 C 340.390625 516.816406 340.570312 516.570312 340.734375 516.316406 C 340.898438 516.0625 341.046875 515.796875 341.183594 515.527344 C 341.316406 515.253906 341.4375 514.976562 341.539062 514.691406 C 341.640625 514.40625 341.726562 514.117188 341.796875 513.820312 C 341.867188 513.523438 341.921875 513.226562 341.957031 512.925781 C 341.992188 512.625 342.011719 512.324219 342.011719 512.019531 C 342.015625 511.714844 342 511.414062 341.964844 511.113281 C 341.933594 510.8125 341.882812 510.511719 341.816406 510.214844 L 327.976562 449.101562 C 327.1875 445.839844 326.59375 442.542969 326.195312 439.210938 C 325.800781 435.878906 325.601562 432.535156 325.605469 429.179688 C 325.609375 425.824219 325.8125 422.480469 326.214844 419.148438 C 326.621094 415.820312 327.21875 412.523438 328.015625 409.265625 C 328.816406 406.003906 329.804688 402.804688 330.984375 399.664062 C 332.164062 396.523438 333.527344 393.460938 335.074219 390.484375 C 336.621094 387.507812 338.339844 384.628906 340.230469 381.859375 C 342.121094 379.085938 344.167969 376.4375 346.375 373.910156 L 346.9375 373.269531 C 354.855469 374.871094 362.855469 375.777344 370.933594 375.988281 L 370.933594 359.988281 C 369.03125 359.953125 367.128906 359.871094 365.226562 359.746094 C 363.324219 359.617188 361.429688 359.449219 359.535156 359.234375 C 357.644531 359.019531 355.757812 358.765625 353.875 358.460938 C 351.996094 358.160156 350.125 357.816406 348.257812 357.429688 C 346.394531 357.039062 344.539062 356.609375 342.695312 356.136719 C 340.851562 355.660156 339.015625 355.144531 337.195312 354.585938 C 335.375 354.027344 333.570312 353.425781 331.777344 352.785156 C 329.984375 352.140625 328.207031 351.457031 326.445312 350.734375 C 324.683594 350.007812 322.9375 349.242188 321.214844 348.4375 C 319.488281 347.628906 317.78125 346.785156 316.09375 345.898438 C 314.410156 345.015625 312.742188 344.089844 311.097656 343.128906 C 309.457031 342.167969 307.835938 341.167969 306.238281 340.128906 C 304.640625 339.09375 303.066406 338.019531 301.519531 336.910156 C 299.972656 335.800781 298.449219 334.652344 296.957031 333.472656 C 295.460938 332.292969 293.996094 331.078125 292.558594 329.828125 C 291.117188 328.582031 289.710938 327.300781 288.332031 325.984375 C 286.953125 324.671875 285.605469 323.328125 284.289062 321.949219 C 282.972656 320.574219 281.6875 319.167969 280.4375 317.730469 C 279.183594 316.296875 277.96875 314.832031 276.785156 313.339844 C 275.601562 311.847656 274.453125 310.328125 273.339844 308.78125 C 272.226562 307.238281 271.148438 305.667969 270.109375 304.070312 C 269.070312 302.476562 268.066406 300.855469 267.101562 299.214844 C 266.136719 297.574219 265.210938 295.910156 264.320312 294.222656 C 263.433594 292.539062 262.585938 290.835938 261.773438 289.109375 C 260.964844 287.386719 260.195312 285.644531 259.46875 283.882812 C 258.742188 282.125 258.054688 280.347656 257.40625 278.558594 C 256.761719 276.765625 256.15625 274.960938 255.59375 273.140625 C 255.03125 271.320312 254.511719 269.488281 254.035156 267.644531 C 253.558594 265.800781 253.121094 263.945312 252.730469 262.082031 C 252.339844 260.21875 251.992188 258.347656 251.6875 256.464844 C 251.382812 254.585938 251.121094 252.699219 250.902344 250.808594 C 250.6875 248.914062 250.511719 247.019531 250.382812 245.117188 L 234.386719 246.238281 C 234.625 249.675781 234.996094 253.097656 235.488281 256.507812 C 235.984375 259.917969 236.605469 263.304688 237.355469 266.664062 C 238.101562 270.027344 238.972656 273.359375 239.964844 276.65625 C 240.960938 279.957031 242.078125 283.214844 243.3125 286.429688 C 244.550781 289.644531 245.902344 292.808594 247.375 295.925781 C 248.847656 299.039062 250.433594 302.09375 252.128906 305.09375 C 253.828125 308.089844 255.636719 311.019531 257.554688 313.882812 C 259.46875 316.746094 261.488281 319.53125 263.613281 322.246094 C 265.734375 324.957031 267.957031 327.589844 270.277344 330.136719 C 272.59375 332.683594 275.003906 335.140625 277.507812 337.511719 C 280.007812 339.878906 282.59375 342.152344 285.265625 344.328125 C 287.933594 346.503906 290.683594 348.578125 293.507812 350.550781 C 296.332031 352.523438 299.226562 354.390625 302.1875 356.144531 C 305.152344 357.902344 308.175781 359.550781 311.261719 361.082031 C 314.347656 362.613281 317.484375 364.03125 320.675781 365.332031 C 323.863281 366.628906 327.097656 367.808594 330.378906 368.867188 C 328.109375 371.796875 326.007812 374.84375 324.078125 378.007812 C 322.152344 381.175781 320.40625 384.4375 318.839844 387.796875 C 317.277344 391.15625 315.90625 394.59375 314.726562 398.105469 C 313.546875 401.617188 312.570312 405.1875 311.789062 408.808594 C 311.007812 412.433594 310.433594 416.085938 310.0625 419.773438 C 309.691406 423.460938 309.527344 427.160156 309.570312 430.863281 C 309.613281 434.570312 309.863281 438.261719 310.320312 441.9375 C 310.777344 445.617188 311.433594 449.257812 312.296875 452.863281 L 323.578125 503.976562 L 173.75 503.976562 L 173.75 423.34375 C 173.746094 420.90625 173.273438 418.566406 172.328125 416.320312 C 171.386719 414.074219 170.046875 412.09375 168.3125 410.386719 C 166.679688 408.792969 164.800781 407.578125 162.679688 406.746094 C 160.554688 405.910156 158.351562 405.527344 156.070312 405.585938 C 140.074219 405.585938 121.835938 398.867188 116.074219 390.226562 C 113.230469 385.636719 110.914062 380.789062 109.132812 375.6875 C 107.351562 370.585938 106.148438 365.355469 105.515625 359.988281 L 96.476562 321.914062 C 96.289062 321.09375 95.976562 320.324219 95.546875 319.605469 C 95.113281 318.886719 94.582031 318.25 93.949219 317.695312 C 93.320312 317.144531 92.617188 316.703125 91.847656 316.371094 C 91.078125 316.039062 90.273438 315.832031 89.4375 315.753906 L 77.839844 314.714844 C 77.226562 314.660156 76.664062 314.464844 76.152344 314.121094 C 75.640625 313.78125 75.242188 313.339844 74.957031 312.792969 C 74.625 312.167969 74.457031 311.503906 74.457031 310.792969 C 74.457031 310.085938 74.625 309.417969 74.957031 308.792969 L 106.394531 248 C 107.160156 246.566406 107.425781 245.046875 107.195312 243.4375 C 106.488281 236.441406 106.476562 229.4375 107.164062 222.4375 C 107.851562 215.4375 109.222656 208.570312 111.277344 201.84375 L 117.515625 208.003906 C 118.554688 209.105469 119.769531 209.964844 121.15625 210.574219 C 122.546875 211.183594 123.996094 211.5 125.515625 211.523438 C 127.015625 211.546875 128.460938 211.273438 129.851562 210.703125 C 131.242188 210.132812 132.460938 209.3125 133.511719 208.242188 L 143.671875 198.003906 L 143.671875 212.402344 C 143.652344 213.167969 143.707031 213.929688 143.839844 214.6875 C 143.972656 215.445312 144.183594 216.179688 144.464844 216.890625 C 144.75 217.605469 145.101562 218.285156 145.523438 218.925781 C 145.945312 219.566406 146.429688 220.160156 146.972656 220.703125 C 147.515625 221.246094 148.105469 221.726562 148.75 222.148438 C 149.390625 222.570312 150.066406 222.925781 150.78125 223.207031 C 151.496094 223.492188 152.230469 223.699219 152.984375 223.832031 C 153.742188 223.96875 154.503906 224.023438 155.273438 224 L 179.269531 224 C 180.011719 224 180.742188 223.929688 181.46875 223.785156 C 182.195312 223.640625 182.902344 223.425781 183.585938 223.140625 C 184.269531 222.859375 184.921875 222.511719 185.535156 222.101562 C 186.152344 221.6875 186.722656 221.222656 187.246094 220.695312 C 187.769531 220.171875 188.238281 219.605469 188.648438 218.988281 C 189.058594 218.371094 189.40625 217.722656 189.691406 217.039062 C 189.972656 216.355469 190.1875 215.648438 190.332031 214.921875 C 190.476562 214.195312 190.550781 213.460938 190.550781 212.722656 L 190.550781 198.324219 L 200.707031 208.5625 C 201.234375 209.085938 201.808594 209.550781 202.425781 209.960938 C 203.042969 210.371094 203.695312 210.71875 204.382812 211 C 205.066406 211.28125 205.773438 211.496094 206.503906 211.640625 C 207.230469 211.785156 207.964844 211.855469 208.707031 211.855469 C 209.449219 211.855469 210.183594 211.785156 210.910156 211.640625 C 211.640625 211.496094 212.347656 211.28125 213.03125 211 C 213.71875 210.71875 214.371094 210.371094 214.988281 209.960938 C 215.609375 209.550781 216.179688 209.085938 216.707031 208.5625 L 233.664062 191.523438 C 234.191406 191 234.664062 190.429688 235.078125 189.8125 C 235.492188 189.195312 235.84375 188.542969 236.128906 187.855469 C 236.414062 187.167969 236.628906 186.460938 236.773438 185.734375 C 236.921875 185.003906 236.992188 184.269531 236.992188 183.523438 C 236.992188 182.78125 236.921875 182.042969 236.773438 181.316406 C 236.628906 180.585938 236.414062 179.878906 236.128906 179.191406 C 235.84375 178.503906 235.492188 177.855469 235.078125 177.238281 C 234.664062 176.621094 234.191406 176.050781 233.664062 175.523438 L 223.347656 165.285156 L 237.90625 165.285156 C 238.640625 165.285156 239.371094 165.214844 240.09375 165.070312 C 240.820312 164.929688 241.519531 164.714844 242.203125 164.433594 C 242.882812 164.152344 243.53125 163.808594 244.144531 163.402344 C 244.761719 162.992188 245.328125 162.53125 245.851562 162.011719 C 246.375 161.492188 246.84375 160.925781 247.253906 160.316406 C 247.667969 159.703125 248.015625 159.058594 248.300781 158.378906 C 248.589844 157.699219 248.804688 156.996094 248.953125 156.277344 C 249.101562 155.554688 249.179688 154.824219 249.183594 154.085938 L 249.183594 130.089844 C 249.183594 129.21875 249.085938 128.363281 248.882812 127.515625 C 248.683594 126.667969 248.390625 125.859375 248 125.082031 C 247.613281 124.304688 247.140625 123.582031 246.582031 122.914062 C 246.027344 122.246094 245.398438 121.652344 244.703125 121.128906 C 249.925781 121.765625 255.097656 122.671875 260.222656 123.847656 C 267.628906 125.625 274.832031 128.023438 281.820312 131.046875 C 278.195312 134.214844 274.742188 137.558594 271.460938 141.082031 C 268.183594 144.609375 265.097656 148.292969 262.203125 152.140625 C 259.308594 155.984375 256.621094 159.972656 254.140625 164.097656 C 251.660156 168.226562 249.402344 172.46875 247.367188 176.832031 C 245.332031 181.191406 243.527344 185.648438 241.953125 190.199219 C 240.382812 194.75 239.050781 199.367188 237.960938 204.058594 C 236.867188 208.746094 236.023438 213.480469 235.425781 218.253906 C 234.832031 223.03125 234.484375 227.828125 234.386719 232.640625 L 250.382812 232.640625 C 250.484375 228.0625 250.839844 223.507812 251.449219 218.972656 C 252.0625 214.4375 252.921875 209.949219 254.035156 205.507812 C 255.148438 201.070312 256.507812 196.707031 258.109375 192.417969 C 259.710938 188.128906 261.546875 183.945312 263.617188 179.863281 C 265.6875 175.78125 267.980469 171.828125 270.492188 168.003906 C 273.003906 164.179688 275.722656 160.503906 278.648438 156.984375 C 281.570312 153.460938 284.683594 150.117188 287.984375 146.945312 C 291.28125 143.769531 294.746094 140.792969 298.378906 138.007812 L 298.378906 289.996094 C 298.371094 291.234375 298.417969 292.472656 298.53125 293.710938 C 298.644531 294.945312 298.816406 296.171875 299.050781 297.390625 C 299.28125 298.609375 299.574219 299.8125 299.925781 301.003906 C 300.277344 302.191406 300.6875 303.363281 301.15625 304.511719 C 301.621094 305.660156 302.144531 306.785156 302.722656 307.882812 C 303.304688 308.980469 303.933594 310.046875 304.617188 311.082031 C 305.300781 312.117188 306.035156 313.117188 306.816406 314.078125 C 307.601562 315.039062 308.429688 315.960938 309.300781 316.84375 C 310.175781 317.726562 311.089844 318.5625 312.046875 319.351562 C 313.003906 320.140625 313.996094 320.882812 315.023438 321.574219 C 316.054688 322.269531 317.113281 322.910156 318.207031 323.496094 C 319.300781 324.085938 320.417969 324.617188 321.5625 325.09375 C 322.710938 325.570312 323.875 325.992188 325.0625 326.351562 C 326.25 326.714844 327.449219 327.015625 328.667969 327.261719 C 329.882812 327.503906 331.109375 327.6875 332.34375 327.808594 C 333.578125 327.929688 334.816406 327.992188 336.058594 327.992188 L 342.136719 327.992188 C 343.371094 327.992188 344.601562 327.929688 345.828125 327.8125 C 347.058594 327.691406 348.277344 327.507812 349.488281 327.269531 C 350.695312 327.027344 351.890625 326.726562 353.074219 326.371094 C 354.253906 326.011719 355.414062 325.597656 356.554688 325.125 C 357.695312 324.652344 358.808594 324.125 359.898438 323.542969 C 360.984375 322.960938 362.042969 322.328125 363.066406 321.640625 C 364.09375 320.957031 365.085938 320.222656 366.039062 319.441406 C 366.992188 318.65625 367.90625 317.828125 368.777344 316.957031 C 369.648438 316.085938 370.476562 315.171875 371.261719 314.21875 C 372.042969 313.261719 372.777344 312.273438 373.464844 311.246094 C 374.148438 310.222656 374.78125 309.164062 375.363281 308.074219 C 375.945312 306.988281 376.472656 305.875 376.945312 304.734375 C 377.417969 303.59375 377.832031 302.433594 378.191406 301.253906 C 378.546875 300.070312 378.847656 298.875 379.089844 297.664062 C 379.328125 296.457031 379.511719 295.234375 379.632812 294.007812 C 379.753906 292.78125 379.8125 291.550781 379.8125 290.316406 L 379.8125 112.730469 C 379.792969 111.089844 379.3125 109.597656 378.375 108.25 Z M 113.753906 182.484375 L 109.195312 187.042969 L 113.753906 182.402344 Z M 233.746094 149.367188 L 212.066406 149.367188 C 210.964844 149.375 209.886719 149.539062 208.832031 149.859375 C 207.78125 150.183594 206.792969 150.648438 205.878906 151.261719 C 204.960938 151.871094 204.148438 152.601562 203.445312 153.449219 C 202.746094 154.300781 202.179688 155.230469 201.746094 156.246094 C 201.308594 157.277344 201.023438 158.351562 200.902344 159.46875 C 200.78125 160.585938 200.820312 161.695312 201.027344 162.796875 C 201.234375 163.902344 201.597656 164.949219 202.113281 165.945312 C 202.632812 166.941406 203.285156 167.84375 204.066406 168.644531 L 219.027344 184.003906 L 208.789062 193.84375 L 193.828125 178.882812 C 193.039062 178.105469 192.152344 177.457031 191.167969 176.9375 C 190.1875 176.421875 189.148438 176.054688 188.058594 175.84375 C 186.96875 175.632812 185.871094 175.582031 184.765625 175.695312 C 183.660156 175.808594 182.597656 176.078125 181.570312 176.503906 C 180.546875 176.929688 179.605469 177.496094 178.746094 178.203125 C 177.886719 178.910156 177.152344 179.722656 176.535156 180.644531 C 175.914062 181.570312 175.445312 182.5625 175.121094 183.625 C 174.796875 184.6875 174.632812 185.773438 174.628906 186.882812 L 174.628906 208.003906 L 159.992188 208.003906 L 159.992188 186.882812 C 160 185.777344 159.851562 184.695312 159.539062 183.632812 C 159.230469 182.574219 158.769531 181.582031 158.167969 180.65625 C 157.5625 179.730469 156.835938 178.910156 155.988281 178.203125 C 155.140625 177.492188 154.207031 176.917969 153.191406 176.484375 C 152.152344 176.058594 151.078125 175.792969 149.960938 175.679688 C 148.84375 175.570312 147.734375 175.621094 146.632812 175.835938 C 145.53125 176.046875 144.484375 176.414062 143.492188 176.933594 C 142.496094 177.453125 141.597656 178.101562 140.792969 178.882812 L 125.835938 193.84375 L 115.59375 183.523438 L 122.953125 176.246094 L 130.472656 168.246094 C 131.265625 167.457031 131.929688 166.570312 132.457031 165.582031 C 132.988281 164.597656 133.363281 163.558594 133.582031 162.460938 C 133.800781 161.363281 133.855469 160.257812 133.746094 159.144531 C 133.636719 158.03125 133.367188 156.957031 132.941406 155.921875 C 132.511719 154.890625 131.941406 153.941406 131.230469 153.078125 C 130.519531 152.214844 129.699219 151.472656 128.765625 150.851562 C 127.835938 150.234375 126.832031 149.761719 125.761719 149.441406 C 124.6875 149.121094 123.59375 148.960938 122.472656 148.96875 L 101.4375 148.96875 L 101.4375 134.808594 L 122.394531 134.808594 C 123.285156 134.820312 124.164062 134.726562 125.035156 134.527344 C 125.902344 134.324219 126.734375 134.023438 127.527344 133.617188 C 128.324219 133.214844 129.058594 132.71875 129.730469 132.136719 C 130.40625 131.554688 131 130.898438 131.515625 130.167969 C 131.902344 129.625 132.238281 129.054688 132.527344 128.453125 C 132.8125 127.855469 133.046875 127.234375 133.226562 126.59375 C 133.402344 125.949219 133.527344 125.296875 133.589844 124.636719 C 133.65625 123.972656 133.664062 123.308594 133.613281 122.644531 C 133.5625 121.980469 133.453125 121.328125 133.289062 120.683594 C 133.125 120.039062 132.902344 119.410156 132.628906 118.804688 C 132.355469 118.199219 132.03125 117.621094 131.65625 117.070312 C 131.277344 116.519531 130.859375 116.007812 130.394531 115.53125 L 115.59375 100.652344 L 125.835938 90.332031 L 140.792969 105.289062 C 141.582031 106.066406 142.46875 106.71875 143.445312 107.238281 C 144.425781 107.757812 145.457031 108.128906 146.542969 108.347656 C 147.628906 108.566406 148.726562 108.628906 149.832031 108.53125 C 150.933594 108.433594 152 108.179688 153.03125 107.769531 C 154.066406 107.339844 155.015625 106.769531 155.882812 106.058594 C 156.746094 105.347656 157.488281 104.523438 158.109375 103.589844 C 158.726562 102.65625 159.199219 101.65625 159.519531 100.582031 C 159.839844 99.507812 159.996094 98.410156 159.992188 97.292969 L 159.992188 76.171875 L 174.628906 76.171875 L 174.628906 97.292969 C 174.632812 98.414062 174.796875 99.515625 175.128906 100.589844 C 175.457031 101.664062 175.933594 102.667969 176.558594 103.597656 C 177.1875 104.53125 177.933594 105.351562 178.804688 106.0625 C 179.675781 106.773438 180.628906 107.34375 181.667969 107.769531 C 182.691406 108.1875 183.753906 108.445312 184.851562 108.546875 C 185.953125 108.648438 187.042969 108.589844 188.125 108.367188 C 189.207031 108.148438 190.230469 107.777344 191.203125 107.25 C 192.175781 106.726562 193.050781 106.074219 193.828125 105.289062 L 208.789062 90.332031 L 219.027344 100.570312 L 203.988281 115.691406 C 203.222656 116.484375 202.585938 117.367188 202.078125 118.347656 C 201.570312 119.328125 201.214844 120.359375 201.011719 121.441406 C 200.808594 122.527344 200.765625 123.617188 200.878906 124.710938 C 200.996094 125.808594 201.265625 126.867188 201.691406 127.882812 C 202.117188 128.902344 202.679688 129.835938 203.378906 130.6875 C 204.078125 131.539062 204.886719 132.273438 205.800781 132.886719 C 206.714844 133.503906 207.699219 133.976562 208.753906 134.300781 C 209.808594 134.628906 210.882812 134.796875 211.988281 134.808594 L 233.183594 134.808594 Z M 339.097656 78.332031 L 356.375 104.011719 L 355.496094 104.011719 C 352.53125 104.078125 349.671875 104.660156 346.917969 105.761719 C 344.164062 106.863281 341.6875 108.414062 339.496094 110.410156 C 336.738281 107.816406 333.539062 106.003906 329.898438 104.972656 C 328.480469 104.585938 327.039062 104.320312 325.578125 104.171875 L 322.296875 104.171875 Z M 347.097656 128.410156 C 347.097656 127.859375 347.148438 127.316406 347.257812 126.777344 C 347.363281 126.238281 347.523438 125.71875 347.730469 125.210938 C 347.941406 124.703125 348.199219 124.222656 348.503906 123.765625 C 348.808594 123.308594 349.15625 122.886719 349.542969 122.496094 C 349.933594 122.109375 350.355469 121.761719 350.8125 121.457031 C 351.265625 121.152344 351.75 120.894531 352.257812 120.6875 C 352.761719 120.476562 353.285156 120.316406 353.824219 120.210938 C 354.363281 120.101562 354.90625 120.050781 355.457031 120.050781 C 356.003906 120.050781 356.546875 120.101562 357.085938 120.210938 C 357.625 120.316406 358.148438 120.476562 358.652344 120.6875 C 359.160156 120.894531 359.644531 121.152344 360.097656 121.457031 C 360.554688 121.761719 360.976562 122.109375 361.367188 122.496094 C 361.753906 122.886719 362.101562 123.308594 362.40625 123.765625 C 362.710938 124.222656 362.96875 124.703125 363.179688 125.210938 C 363.386719 125.71875 363.546875 126.238281 363.652344 126.777344 C 363.761719 127.316406 363.8125 127.859375 363.8125 128.410156 L 363.8125 259.996094 C 363.839844 260.539062 363.8125 261.078125 363.730469 261.613281 C 363.648438 262.152344 363.511719 262.671875 363.324219 263.183594 C 363.136719 263.691406 362.898438 264.175781 362.609375 264.636719 C 362.324219 265.09375 361.992188 265.523438 361.617188 265.914062 C 361.242188 266.308594 360.832031 266.660156 360.386719 266.96875 C 359.941406 267.277344 359.46875 267.539062 358.972656 267.753906 C 358.472656 267.964844 357.957031 268.125 357.425781 268.234375 C 356.894531 268.34375 356.359375 268.398438 355.816406 268.398438 C 355.28125 268.367188 354.757812 268.285156 354.238281 268.15625 C 353.722656 268.027344 353.21875 267.851562 352.734375 267.628906 C 352.25 267.402344 351.792969 267.136719 351.359375 266.824219 C 350.921875 266.515625 350.523438 266.164062 350.15625 265.777344 C 349.785156 265.394531 349.457031 264.976562 349.167969 264.527344 C 348.878906 264.078125 348.632812 263.605469 348.433594 263.109375 C 348.234375 262.617188 348.082031 262.105469 347.976562 261.582031 C 347.875 261.058594 347.820312 260.53125 347.816406 259.996094 Z M 314.378906 259.996094 L 314.378906 128.410156 C 314.347656 127.292969 314.5625 126.226562 315.019531 125.210938 C 315.410156 124.292969 315.945312 123.464844 316.617188 122.730469 C 317.296875 122.058594 318.070312 121.523438 318.9375 121.128906 C 319.804688 120.738281 320.710938 120.5 321.65625 120.410156 C 322.644531 120.246094 323.632812 120.246094 324.617188 120.410156 C 325.480469 120.667969 326.28125 121.050781 327.019531 121.566406 C 327.757812 122.082031 328.398438 122.699219 328.9375 123.417969 C 329.476562 124.140625 329.890625 124.925781 330.179688 125.777344 C 330.464844 126.632812 330.613281 127.507812 330.617188 128.410156 L 330.617188 259.996094 C 330.644531 260.539062 330.617188 261.078125 330.535156 261.613281 C 330.453125 262.152344 330.316406 262.671875 330.128906 263.183594 C 329.9375 263.691406 329.699219 264.175781 329.414062 264.636719 C 329.125 265.09375 328.792969 265.523438 328.421875 265.914062 C 328.046875 266.308594 327.636719 266.660156 327.191406 266.96875 C 326.746094 267.277344 326.273438 267.539062 325.773438 267.753906 C 325.277344 267.964844 324.761719 268.125 324.230469 268.234375 C 323.699219 268.34375 323.160156 268.398438 322.617188 268.398438 C 322.085938 268.367188 321.558594 268.285156 321.042969 268.15625 C 320.523438 268.027344 320.023438 267.851562 319.539062 267.628906 C 319.054688 267.402344 318.59375 267.136719 318.160156 266.824219 C 317.726562 266.515625 317.324219 266.164062 316.957031 265.777344 C 316.589844 265.394531 316.261719 264.976562 315.972656 264.527344 C 315.683594 264.078125 315.4375 263.605469 315.238281 263.109375 C 315.035156 262.617188 314.886719 262.105469 314.78125 261.582031 C 314.675781 261.058594 314.621094 260.53125 314.617188 259.996094 Z M 342.136719 311.992188 L 336.058594 311.992188 C 335.347656 311.992188 334.640625 311.953125 333.933594 311.882812 C 333.230469 311.808594 332.527344 311.703125 331.832031 311.5625 C 331.136719 311.421875 330.449219 311.25 329.773438 311.042969 C 329.09375 310.835938 328.429688 310.59375 327.773438 310.320312 C 327.117188 310.050781 326.476562 309.746094 325.851562 309.410156 C 325.226562 309.074219 324.621094 308.710938 324.03125 308.316406 C 323.441406 307.921875 322.875 307.5 322.324219 307.046875 C 321.777344 306.597656 321.253906 306.121094 320.75 305.621094 C 320.25 305.121094 319.773438 304.59375 319.324219 304.046875 C 318.875 303.5 318.449219 302.929688 318.054688 302.339844 C 317.660156 301.75 317.296875 301.144531 316.960938 300.519531 C 316.625 299.894531 316.324219 299.253906 316.050781 298.597656 C 315.777344 297.945312 315.539062 297.277344 315.328125 296.597656 C 315.121094 295.921875 314.949219 295.234375 314.808594 294.539062 C 314.667969 293.84375 314.5625 293.144531 314.488281 292.4375 C 314.417969 291.730469 314.382812 291.023438 314.378906 290.316406 L 314.378906 282.957031 L 316.859375 283.597656 L 318.21875 283.597656 C 319.722656 283.914062 321.242188 284.074219 322.777344 284.074219 C 325.75 284.035156 328.613281 283.464844 331.371094 282.363281 C 334.128906 281.257812 336.597656 279.695312 338.777344 277.675781 C 340.976562 279.664062 343.449219 281.210938 346.203125 282.308594 C 348.953125 283.410156 351.8125 284 354.773438 284.074219 C 357.535156 284.003906 360.199219 283.46875 362.773438 282.476562 L 362.773438 289.996094 C 362.78125 290.691406 362.757812 291.382812 362.699219 292.074219 C 362.644531 292.769531 362.550781 293.457031 362.429688 294.140625 C 362.304688 294.824219 362.148438 295.5 361.960938 296.167969 C 361.769531 296.839844 361.550781 297.496094 361.300781 298.144531 C 361.046875 298.792969 360.765625 299.425781 360.453125 300.046875 C 360.140625 300.667969 359.800781 301.269531 359.429688 301.859375 C 359.058594 302.449219 358.660156 303.015625 358.234375 303.566406 C 357.8125 304.117188 357.363281 304.644531 356.886719 305.152344 C 356.410156 305.65625 355.910156 306.140625 355.390625 306.601562 C 354.867188 307.058594 354.328125 307.492188 353.761719 307.898438 C 353.199219 308.304688 352.617188 308.683594 352.019531 309.035156 C 351.417969 309.386719 350.804688 309.710938 350.175781 310 C 349.542969 310.292969 348.902344 310.554688 348.246094 310.785156 C 347.589844 311.015625 346.925781 311.214844 346.25 311.382812 C 345.578125 311.550781 344.894531 311.683594 344.207031 311.785156 C 343.519531 311.890625 342.832031 311.957031 342.136719 311.992188 Z M 342.136719 311.992188 " fill-opacity="1" fill-rule="nonzero"/></g><path fill="#192140" d="M 410.371094 319.992188 C 410.371094 320.519531 410.421875 321.039062 410.523438 321.554688 C 410.625 322.070312 410.777344 322.570312 410.980469 323.054688 C 411.179688 323.539062 411.425781 324 411.71875 324.4375 C 412.011719 324.875 412.34375 325.277344 412.714844 325.648438 C 413.085938 326.019531 413.488281 326.351562 413.925781 326.644531 C 414.363281 326.9375 414.824219 327.183594 415.308594 327.382812 C 415.792969 327.585938 416.292969 327.734375 416.808594 327.839844 C 417.324219 327.941406 417.84375 327.992188 418.371094 327.992188 L 442.367188 327.992188 C 442.894531 327.992188 443.414062 327.941406 443.929688 327.839844 C 444.445312 327.734375 444.945312 327.585938 445.429688 327.382812 C 445.914062 327.183594 446.375 326.9375 446.8125 326.644531 C 447.25 326.351562 447.652344 326.019531 448.023438 325.648438 C 448.394531 325.277344 448.726562 324.875 449.019531 324.4375 C 449.3125 324 449.558594 323.539062 449.757812 323.054688 C 449.960938 322.570312 450.109375 322.070312 450.214844 321.554688 C 450.316406 321.039062 450.367188 320.519531 450.367188 319.992188 L 457.886719 146.808594 C 460.816406 143.636719 463.054688 140.035156 464.605469 136.007812 C 465.839844 132.265625 466.425781 128.425781 466.367188 124.488281 C 466.367188 107.929688 442.367188 67.773438 437.648438 59.855469 C 437.292969 59.269531 436.871094 58.742188 436.378906 58.265625 C 435.886719 57.789062 435.34375 57.382812 434.75 57.046875 C 434.152344 56.710938 433.527344 56.457031 432.863281 56.28125 C 432.203125 56.105469 431.53125 56.019531 430.847656 56.015625 C 430.160156 56.011719 429.480469 56.09375 428.8125 56.265625 C 428.140625 56.4375 427.507812 56.691406 426.902344 57.027344 C 426.300781 57.367188 425.75 57.773438 425.253906 58.25 C 424.757812 58.730469 424.328125 59.265625 423.96875 59.855469 C 415.144531 74.460938 407.304688 89.578125 400.453125 105.210938 C 397.523438 111.3125 395.816406 117.738281 395.332031 124.488281 C 395.347656 128.386719 395.992188 132.179688 397.269531 135.863281 C 398.542969 139.550781 400.375 142.929688 402.769531 146.007812 Z M 434.367188 311.992188 L 426.367188 311.992188 L 419.648438 158.085938 L 422.449219 158.804688 C 423.132812 159.003906 423.828125 159.164062 424.527344 159.285156 C 426.589844 159.699219 428.667969 159.910156 430.769531 159.925781 L 433.007812 159.925781 C 434.402344 159.875 435.789062 159.742188 437.167969 159.527344 L 439.488281 158.964844 L 441.648438 158.484375 Z M 415.25 111.371094 C 419.972656 100.578125 425.304688 90.101562 431.25 79.933594 C 440.449219 96.972656 450.367188 117.289062 450.367188 124.488281 C 450.375 126.566406 450.054688 128.59375 449.40625 130.570312 C 449.210938 131.175781 448.980469 131.769531 448.726562 132.355469 C 448.46875 132.941406 448.183594 133.511719 447.867188 134.066406 C 447.554688 134.621094 447.214844 135.160156 446.84375 135.683594 C 446.476562 136.203125 446.085938 136.707031 445.667969 137.1875 C 445.25 137.671875 444.808594 138.132812 444.34375 138.570312 C 443.878906 139.007812 443.394531 139.425781 442.890625 139.8125 C 442.386719 140.203125 441.863281 140.570312 441.320312 140.90625 C 440.777344 141.246094 440.222656 141.554688 439.648438 141.835938 C 439.078125 142.121094 438.492188 142.375 437.894531 142.597656 C 437.296875 142.820312 436.6875 143.015625 436.070312 143.179688 C 435.453125 143.34375 434.832031 143.476562 434.199219 143.578125 C 433.570312 143.679688 432.9375 143.746094 432.300781 143.785156 C 431.660156 143.824219 431.023438 143.832031 430.386719 143.804688 C 429.75 143.777344 429.113281 143.722656 428.480469 143.632812 C 427.847656 143.542969 427.222656 143.425781 426.601562 143.273438 C 425.984375 143.121094 425.371094 142.941406 424.769531 142.726562 C 421.667969 141.773438 419.003906 140.121094 416.769531 137.769531 C 415.089844 135.964844 413.800781 133.917969 412.902344 131.625 C 412.003906 129.332031 411.558594 126.953125 411.570312 124.488281 C 412.042969 119.902344 413.269531 115.53125 415.25 111.371094 Z M 415.25 111.371094 " fill-opacity="1" fill-rule="nonzero"/><path fill="#192140" d="M 172.390625 116.808594 C 170.734375 116.40625 169.054688 116.21875 167.351562 116.25 C 166.015625 116.246094 164.6875 116.34375 163.371094 116.542969 C 162.050781 116.746094 160.753906 117.046875 159.480469 117.453125 C 158.210938 117.855469 156.976562 118.355469 155.78125 118.949219 C 154.589844 119.546875 153.449219 120.230469 152.359375 121.003906 C 151.273438 121.777344 150.25 122.632812 149.296875 123.566406 C 148.34375 124.496094 147.464844 125.5 146.667969 126.570312 C 145.871094 127.636719 145.160156 128.761719 144.535156 129.945312 C 143.914062 131.125 143.386719 132.34375 142.953125 133.609375 C 141.984375 136.351562 141.503906 139.179688 141.511719 142.085938 C 141.511719 142.933594 141.554688 143.777344 141.636719 144.621094 C 141.71875 145.460938 141.84375 146.296875 142.007812 147.128906 C 142.175781 147.957031 142.378906 148.777344 142.625 149.589844 C 142.871094 150.398438 143.15625 151.195312 143.480469 151.976562 C 143.804688 152.757812 144.164062 153.519531 144.5625 154.265625 C 144.960938 155.015625 145.398438 155.738281 145.867188 156.441406 C 146.335938 157.144531 146.839844 157.824219 147.378906 158.480469 C 147.914062 159.132812 148.480469 159.757812 149.082031 160.359375 C 149.679688 160.957031 150.304688 161.523438 150.960938 162.058594 C 151.613281 162.597656 152.292969 163.101562 152.996094 163.570312 C 153.699219 164.042969 154.425781 164.476562 155.171875 164.875 C 155.917969 165.273438 156.679688 165.636719 157.464844 165.957031 C 158.246094 166.28125 159.039062 166.566406 159.851562 166.8125 C 160.660156 167.058594 161.480469 167.265625 162.308594 167.429688 C 163.140625 167.59375 163.976562 167.71875 164.816406 167.800781 C 165.660156 167.882812 166.503906 167.925781 167.351562 167.925781 C 168.195312 167.925781 169.042969 167.882812 169.882812 167.800781 C 170.726562 167.71875 171.5625 167.59375 172.390625 167.429688 C 173.222656 167.265625 174.042969 167.058594 174.851562 166.8125 C 175.660156 166.566406 176.457031 166.28125 177.238281 165.957031 C 178.019531 165.636719 178.785156 165.273438 179.53125 164.875 C 180.277344 164.476562 181 164.042969 181.707031 163.570312 C 182.410156 163.101562 183.089844 162.597656 183.742188 162.058594 C 184.394531 161.523438 185.023438 160.957031 185.621094 160.359375 C 186.21875 159.757812 186.785156 159.132812 187.324219 158.480469 C 187.859375 157.824219 188.363281 157.144531 188.835938 156.441406 C 189.304688 155.738281 189.738281 155.015625 190.136719 154.265625 C 190.535156 153.519531 190.898438 152.757812 191.222656 151.976562 C 191.546875 151.195312 191.832031 150.398438 192.074219 149.589844 C 192.320312 148.777344 192.527344 147.957031 192.691406 147.128906 C 192.855469 146.296875 192.980469 145.460938 193.0625 144.621094 C 193.148438 143.777344 193.1875 142.933594 193.1875 142.085938 C 193.195312 140.605469 193.074219 139.132812 192.828125 137.667969 C 192.578125 136.207031 192.207031 134.777344 191.710938 133.378906 C 191.210938 131.980469 190.597656 130.636719 189.867188 129.34375 C 189.136719 128.054688 188.300781 126.835938 187.359375 125.691406 C 186.414062 124.542969 185.382812 123.488281 184.253906 122.523438 C 183.128906 121.558594 181.929688 120.695312 180.652344 119.9375 C 179.375 119.183594 178.042969 118.539062 176.65625 118.015625 C 175.269531 117.488281 173.847656 117.085938 172.390625 116.808594 Z M 167.351562 152.007812 C 166.703125 152.007812 166.066406 151.945312 165.429688 151.816406 C 164.796875 151.691406 164.183594 151.503906 163.585938 151.257812 C 162.988281 151.011719 162.421875 150.707031 161.882812 150.347656 C 161.347656 149.988281 160.851562 149.582031 160.394531 149.125 C 159.9375 148.667969 159.527344 148.171875 159.167969 147.632812 C 158.8125 147.097656 158.507812 146.53125 158.261719 145.933594 C 158.011719 145.335938 157.828125 144.722656 157.699219 144.085938 C 157.574219 143.453125 157.511719 142.8125 157.511719 142.167969 C 157.476562 141.0625 157.664062 139.996094 158.070312 138.96875 C 158.394531 137.996094 158.859375 137.09375 159.464844 136.269531 C 160.074219 135.441406 160.796875 134.730469 161.628906 134.136719 C 162.460938 133.539062 163.367188 133.085938 164.347656 132.777344 C 165.324219 132.46875 166.324219 132.320312 167.351562 132.328125 L 169.191406 132.328125 C 169.746094 132.441406 170.289062 132.601562 170.816406 132.808594 C 171.34375 133.011719 171.851562 133.261719 172.339844 133.554688 C 172.824219 133.84375 173.28125 134.175781 173.710938 134.546875 C 174.140625 134.914062 174.539062 135.320312 174.898438 135.753906 C 175.261719 136.191406 175.582031 136.65625 175.863281 137.148438 C 176.148438 137.640625 176.386719 138.152344 176.582031 138.683594 C 176.773438 139.21875 176.925781 139.761719 177.027344 140.320312 C 177.128906 140.878906 177.183594 141.441406 177.191406 142.007812 C 177.199219 142.660156 177.148438 143.308594 177.027344 143.949219 C 176.910156 144.59375 176.730469 145.214844 176.488281 145.820312 C 176.246094 146.429688 175.945312 147.003906 175.589844 147.550781 C 175.230469 148.097656 174.824219 148.601562 174.367188 149.070312 C 173.90625 149.535156 173.410156 149.949219 172.867188 150.316406 C 172.328125 150.679688 171.753906 150.992188 171.152344 151.242188 C 170.550781 151.496094 169.929688 151.683594 169.289062 151.8125 C 168.648438 151.941406 168.003906 152.007812 167.351562 152.007812 Z M 167.351562 152.007812 " fill-opacity="1" fill-rule="nonzero"/></svg>